<svg xmlns="http://www.w3.org/2000/svg" width="100" height="100" viewBox="0 0 26.458 26.458" id="svg48"><path d="M26.55 26.57l-11.83-.167c2.833-5.132-4.657-13.223 11.813-14.53-.25 3.04.012 11.163.017 14.696z" fill="#ac9d93" stroke="#ac9d93" stroke-width=".088" id="path2"/><path d="M26.481 11.872L26.497.046C24.721.016 21.905 0 20.431-.023c-3.374 5.066-4.509 9.478-4.116 14.856l10.217-2.96" fill="#71c837" id="path4"/><path d="M14.843 26.44c1.958-6.07-.109-15.389 5.588-26.463L10.96.026C6.019 7.944 7.805 18.197 2.282 26.453z" fill="#2ad4ff" id="path6"/><path d="M.042.028l-.02 26.414 2.225.011c6.115-7.37 5.837-17.65 8.7-26.414C7.34.087 3.552-.111.042.028z" fill="#5aa02c" id="path8"/><path d="M3.475 17.636c-.888.45-1.835.792-2.659 1.36a9.336 9.336 0 0-.811.612 NaNL-1.37 NaNc.744 NaN 1.67 NaN 2.629 NaN.459 NaN.924 NaN 1.377 NaNl-.583 NaNz" fill="#0b2817" id="path10"/><path d="M3.173 17.36c2.879-1.89 6.604-2.76 10.063-1.973 1.835.4 3.552 1.23 5.003 2.347l.685-2.716c-1.751-1.428-4.081-2.075-6.353-2.326-2.934-.297-6.089.244-8.428 2.006l-.97 2.663z" fill="#f95" id="path12"/><path d="M3.35 17.166c2.664-1.614 5.985-2.21 9.104-1.67 2.01.326 3.93 1.038 5.7 1.974l.685-2.49c-1.7-1.356-3.947-1.944-6.127-2.193-2.993-.307-6.195.202-8.654 1.9l-.708 2.479z" opacity=".248" fill="#520" id="path14"/><path d="M3.63 11.29c.185.047.572-.095.628.072v5.52c-.185-.048-.573.095-.628-.073v-5.52z" opacity=".99" fill="#ff7f2a" fill-rule="evenodd" id="path16"/><path d="M4.24 11.251c1.628-.325 3.251-.785 4.927-.805.158-.007.158.655-.064.566-1.42-.177-2.734.487-4.098.727l-.766-.488z" opacity=".99" fill="#d45500" fill-rule="evenodd" id="path18"/><path d="M8.452 9.985c.185.047.572-.095.628.072v5.52c-.185-.047-.572.095-.628-.073V9.985z" opacity=".99" fill="#ff7f2a" fill-rule="evenodd" id="path20"/><path d="M9.763 10.318a14.838 14.838 0 0 1 4.596-.15l.04.767c-1.539-.555-3.212-.266-4.797-.075l.161-.542z" opacity=".99" fill="#d45500" fill-rule="evenodd" id="path22"/><path d="M13.588 10.145c.185.047.573-.095.628.072v5.52c-.185-.048-.572.095-.628-.073v-5.52zm3.824 1.171c.185.047.572-.095.628.073v5.52c-.185-.048-.572.094-.628-.073v-5.52zM4.286 10.091c.185.048.572-.095.628.073v4.454c-.185-.047-.572.095-.628-.072v-4.454zm4.851-1.49c.185.046.572-.096.628.072v4.454c-.185-.047-.572.095-.628-.072V8.6z" opacity=".99" fill="#ff7f2a" fill-rule="evenodd" id="path24"/><path d="M14.216 8.92c.185.047.572-.095.628.072v4.455c-.185-.047-.572.095-.628-.073V8.92z" opacity=".99" fill="#ff7f2a" fill-rule="evenodd" id="path26"/><path d="M14.827 10.334c1.222-.078 2.359.41 3.507.716l.121.655c-1.152-.514-2.393-.925-3.687-.898l.06-.473z" opacity=".99" fill="#d35500" fill-rule="evenodd" id="path28"/><path d="M18.325 10.411c.185.047.572-.095.628.072v4.455c-.185-.047-.572.095-.628-.073v-4.454zm-14.086.84c.373.205.14.796-.285.729-.425-.021-.52-.633-.12-.765a.456.456 0 0 1 .405.036m4.737-1.496c.354.178.158.71-.23.683-.373.037-.602-.459-.28-.662a.48.48 0 0 1 .51-.02m5.165.053c.354.178.157.709-.23.682-.374.037-.603-.459-.28-.661a.48.48 0 0 1 .51-.022" opacity=".99" fill="#ff7f2a" fill-rule="evenodd" id="path30"/><path d="M18.078 11.087c.354.178.158.709-.23.682-.373.037-.602-.459-.279-.661a.48.48 0 0 1 .509-.022m.8-1.064c.353.178.157.709-.231.682-.373.037-.602-.459-.279-.662a.48.48 0 0 1 .509-.02m-4.051-1.438c.353.178.157.709-.23.682-.374.037-.603-.459-.28-.661a.48.48 0 0 1 .51-.022m-5.08-.372c.354.178.158.71-.23.682-.373.038-.602-.458-.279-.661a.48.48 0 0 1 .509-.021m-4.85 1.65c.354.179.157.71-.23.683-.374.037-.603-.459-.28-.661a.48.48 0 0 1 .51-.021M4.2 12.685a9.798 9.798 0 0 1 4.4-1.221c-.06.235.169.702-.268.629-1.404.31-2.76.784-4.115 1.24l-.016-.648zm10.57-1.003c.947-.026 1.912.19 2.725.65l.052.75c-.84-.617-1.952-.873-3.008-.74l.231-.66zm-5.735-.234c1.578-.496 3.328-.436 4.9.05-.07.295-.028.752-.504.428-1.45-.34-2.955-.12-4.408.089l.012-.567z" opacity=".99" fill="#ff7f2a" fill-rule="evenodd" id="path32"/><path d="M3.216 17.254c.17.451.428.367.755.032 2.29-1.57 5.29-2.037 8.051-1.54 2.175.372 4.247 1.194 6.103 2.307.072-.317.251-.678-.282-.725-2.09-1.114-4.263-2.265-6.71-2.474-2.875-.305-5.678.785-7.916 2.4z" fill="#a40" id="path34"/><path d="M26.636 26.381l-.06-2.805c-3.42-1.8-6.104-4.874-7.566-8.44-.099-.4-.137.143-.201.285l-.729 2.713c1.054 1.606 1.995 3.312 3.371 4.676 1.477 1.513 3.288 2.658 5.185 3.571z" fill="#0b2817" id="path36"/><g id="dog4" transform="matrix(-.19856 0 0 .19297 18.51 21.503)"><path id="path1508-3" style="font-variation-settings:normal" d="M-3.797-4.594c-.186.118-.627-.06-.9.05-.56.229-.526-.716-.198-.518.264.159.388.09.644.063" fill="#4d4d4d" fill-rule="evenodd" stroke-width=".959"/><path id="path1508-3-2" style="font-variation-settings:normal" d="M-10.13-4.756c-.186.118-.627-.06-.9.05-.56.23-.526-.716-.198-.518.264.16.388.091.644.063" fill="#4d4d4d" fill-rule="evenodd" stroke-width=".959"/><path id="rect1405-1" d="M-10.881-8.043h.75v3.296h-.75c.488-.75.054-2.158 0-3.296z" fill="#666" fill-rule="evenodd" stroke-width=".147"/><path id="path1387" style="font-variation-settings:normal" d="M-11.484-15.411c1.408.6 2.403 2.007 1.46 2.901-.944.895-3.242 1.2-4.65.6-1.408-.6-1.9-1.234-.711-1.76 1.199-.529 2.872-1.874 3.93-1.775" fill="#b3b3b3" fill-rule="evenodd"/><path id="rect1405-6" d="M-4.565-7.372l.797-.508v3.296h-.75c.59-.846-.046-1.689-.047-2.788z" fill="#666" fill-rule="evenodd" stroke-width=".147"/><path id="path1387-1" style="font-variation-settings:normal" d="M-4.135-10.924c2.244.535.511 3.46-.098 3.684-1.903.7-10.755 2.472-8.296-4.36 0 0 2.563-1.17 2.031-.78-.315.232 4.016 1.854 5.407 1.487" fill="#b3b3b3" fill-rule="evenodd" stroke-width=".956"/><path id="rect1405" d="M-11.583-7.635h.75v3.296h-1.076c.72-.273.55-1.908.326-3.296z" fill="#b3b3b3" fill-rule="evenodd" stroke-width=".147"/><path id="rect1405-8" d="M-5.49-6.963l1.004-.623v3.295l-1.142-.032c1.382-.781.185-2.084.137-2.64z" fill="#b3b3b3" fill-rule="evenodd" stroke-width=".147"/><path id="rect1405-8-6" d="M-1.463-11.126c-.373.877-1.073 1.32-1.69 1.872l-.278-.697c.735-.03.953-1.242 1.968-1.175z" fill="#b3b3b3" fill-rule="evenodd" stroke-width=".147"/><path id="path1387-5" style="font-variation-settings:normal" d="M-15.347-13.586c.2.295.216.785-.083.959-.3.174-.79.06-.99-.234-.2-.295-.216-.52.084-.567.303-.047.803-.286.999-.165" fill="#333" fill-rule="evenodd" stroke-width=".26"/><path style="font-variation-settings:normal" id="path1469" d="M-13.446-14.733a.228.277 0 0 1 .063.385.228.277 0 0 1-.317.075.228.277 0 0 1-.063-.384.228.277 0 0 1 .317-.076" fill-rule="evenodd" stroke-width="1.55"/><path style="font-variation-settings:normal" id="path1469-3" d="M-12.989-13.836a.228.277 0 0 1 .062.385.228.277 0 0 1-.316.076.228.277 0 0 1-.063-.385.228.277 0 0 1 .317-.076" fill-rule="evenodd" stroke-width="1.55"/><path d="M-11.723-15.365l1.263.699c.126-.419.312-.8.014-1.475-.019-.163-1.076.07-1.277.776z" id="path1486" fill="#1a1a1a" stroke-width=".705"/><path d="M-11.634-14.788l.78 1.214c.309-.309.654-.556.712-1.29.061-.154-.98-.451-1.492.076z" id="path1486-1" fill="#333" stroke-width=".705"/><path id="rect1503" d="M-12.669-11.616c.818-.16 1.67-.255 2.372-.646l.323.245c-.786.437-1.71.701-2.741.83z" fill="#803300" fill-rule="evenodd" stroke-width=".147"/><path d="M-14.976-12.072c.592-.105.852-.342 1.011-.62" id="path1506" fill="none" stroke="#000" stroke-width=".3" stroke-linecap="round"/><path id="path1508" style="font-variation-settings:normal" d="M-10.848-4.334c-.186.118-.627-.06-.899.051-.56.228-.526-.717-.199-.519.265.16.389.092.644.063" fill="#b3b3b3" fill-rule="evenodd" stroke-width=".959"/><path id="path1508-1" style="font-variation-settings:normal" d="M-4.535-4.271c-.177.118-.595-.06-.853.05-.531.229-.499-.716-.188-.518.25.159.368.09.61.063" fill="#b3b3b3" fill-rule="evenodd" stroke-width=".934"/></g><path d="M21.591 13.207c-.342.64-1.304.566-1.464.028-1.433.077-1.09-1.624-.465-1.732-.454-.388-.466-2.3 1.364-1.874 1.747-1.21 2.89.31 2.545.951 1.508.36.624 1.109.316 2.045-.313.885-1.665 1.403-2.296.582zm-5.728 11.886c-.252.538-1.173.645-1.447.077-.329-.067-.9-.131-.985-.61-.112-.426.038-1.03.502-1.171-.359-.416-.327-1.094-.02-1.534.31-.43.911-.464 1.384-.34.587-.437 1.467-.66 2.1-.19.341.25.633.718.446 1.14.35.087.858.237.854.68-.064.523-.43.946-.57 1.447-.326.739-1.37 1.206-2.07.697a1.07 1.07 0 1-.195-.196 NaNz" fill="#050" id="path42"/><path d="M16.245 21.084c-.252.538-1.173.645-1.447.077-.33-.067-.9-.131-.985-.61-.112-.426.038-1.03.502-1.171-.359-.416-.328-1.094-.02-1.534.31-.43.911-.464 1.384-.34.587-.437 1.467-.66 2.1-.19.341.25.633.718.445 1.14.35.087.859.237.855.68-.064.523-.43.946-.57 1.447-.327.738-1.37 1.206-2.07.697a1.07 1.07 0 1-.195-.196 NaNz" fill="#677821" id="path44"/><path d="M18.632 23.112c-.252.538-1.174.645-1.447.077-.33-.067-.9-.131-.985-.61-.112-.426.038-1.03.502-1.171-.359-.416-.328-1.094-.02-1.534.31-.43.911-.464 1.384-.34.587-.437 1.467-.66 2.1-.19.34.25.633.718.445 1.141.35.086.859.236.855.679-.064.523-.43.946-.57 1.447-.327.739-1.37 1.206-2.07.697a1.07 1.07 0 1-.195-.196 NaNzm4.676-12.63c-.413.355-1.169.192-1.342-.34.05-.32-.387-.274-.518-.523-.303-.343-.163-.873.13-1.174.159-.17.388-.327.632-.278-.135-.358.017-.76.215-1.064.241-.378.728-.583 1.162-.445.227.06.434.177.623.314.616-.137 1.35-.087 1.812.39.34.346.52.937.246 1.372-.22.17.24.274.297.456.173.18.235.475.077.684-.28.39-.716.629-1.022.996-.515.502-1.427.601-1.995.134a1.012 1.012 0 0 1-.317-.522z" fill="#338000" id="path46"/><g id="bottom-fish" transform="matrix(.1613 0 0 .15752 8.278 14.76)" fill="#d4aa00"><path d="M.796 37.935c1.516-4.96 8.742-6.727 13.761-5.78-3.32 1.565-3.02 4.134-2.539 6.754-3.996-.785-6.835-1.007-11.253.399" id="path879" fill="#483737" stroke-width=".297"/><path d="M11.922 38.89c-.713-1.89-.954-6.135 2.413-6.776 4.116 1.585 4.593 4.68 6.262 7.13-.319.637-.71 1.154-1.696.678.767.566.354.74.51 1.102-2.462-.414-4.444-.39-7.489-2.134z" id="path881" fill="#540" stroke-width=".265"/><path d="M.796 37.935c-1.962 1.932-2.34 5.448-2.745 8.937 2.184.414 4.294.438 5.848-2.458-1.254-1.594-2.484-3.196-2.332-5.26z" id="path883" fill="#6c5353" stroke-width=".265"/><path style="font-variation-settings:normal" id="path885" d="M17.452 37.48a.593.593 0 0 1 .162.823.593.593 0 0 1-.823.162.593.593 0 0 1-.162-.823.593.593 0 0 1 .823-.163" fill="#f2f2f2" fill-rule="evenodd" stroke-width=".265"/><path d="M11.028 32.185c-1.97-.203-1.37-1.806-1.918-2.577 2.111.627 3.911 1.633 4.915 2.577z" id="path887" fill="#6c5353" stroke-width=".265"/></g><g id="top-fish" transform="matrix(-.05546 .07719 .08005 .05751 11.628 1.567)" fill="#d4aa00"><path d="M.796 37.935c1.516-4.96 8.742-6.727 13.761-5.78-3.32 1.565-3.02 4.134-2.539 6.754-3.996-.785-6.835-1.007-11.253.399" id="path879-4" fill="#483737" stroke-width=".297"/><path d="M11.922 38.89c-.713-1.89-.954-6.135 2.413-6.776 4.116 1.585 4.593 4.68 6.262 7.13-.319.637-.71 1.154-1.696.678.767.566.354.74.51 1.102-2.462-.414-4.444-.39-7.489-2.134z" id="path881-8" fill="#540" stroke-width=".265"/><path d="M.796 37.935c-1.962 1.932-2.34 5.448-2.745 8.937 2.184.414 4.294.438 5.848-2.458-1.254-1.594-2.484-3.196-2.332-5.26z" id="path883-2" fill="#6c5353" stroke-width=".265"/><path style="font-variation-settings:normal" id="path885-7" d="M17.452 37.48a.593.593 0 0 1 .162.823.593.593 0 0 1-.823.162.593.593 0 0 1-.162-.823.593.593 0 0 1 .823-.163" fill="#f2f2f2" fill-rule="evenodd" stroke-width=".265"/><path d="M11.028 32.185c-1.97-.203-1.37-1.806-1.918-2.577 2.111.627 3.911 1.633 4.915 2.577z" id="path887-9" fill="#6c5353" stroke-width=".265"/></g><g id="sign4" transform="matrix(1.06677 0 0 .9797 -22.776 5.21)"><path id="rect988" opacity=".987" fill="#1a1a1a" fill-rule="evenodd" stroke="#542403" stroke-width=".682" d="M21.73-4.969h3.532v7.433H21.73z"/><text style="line-height:1.25" x="26.244" y="-1.788" id="text998" transform="scale(.83702 1.19472)" font-size="1.982" font-family="sans-serif" fill="#b3b3b3" stroke-width=".165"><tspan id="tspan996" x="26.244" y="-1.788">Not</tspan></text><text style="line-height:1.25" x="35.563" y=".689" id="text998-0" transform="scale(.61885 1.61589)" font-size="1.978" font-family="sans-serif" fill="#b3b3b3" stroke-width=".165"><tspan id="tspan996-3" x="35.563" y=".689">Here</tspan></text></g><path id="rect84" d="M11.508 4.135c1.716.934 3.563.796 5.469.184v2.45h-5.898z" opacity=".987" fill="#2ad4ff" fill-rule="evenodd" stroke-width=".619"/><g id="top-flashes" transform="matrix(.92007 0 0 .97519 1.361 .138)" fill="#e6e6e6"><path d="M17.015 4.176c.08.411-.258.314-.435.118.296.28.422-.269.435-.118z" id="path897-6" stroke-width=".039"/><path d="M16.222 3.821c.311.258-.005.417-.26.39.396.008.157-.496.26-.39z" id="path897-7-6" stroke-width=".039"/><path d="M15.799 5.12c-.12.103-.16-.031-.133-.129.017.042.204.039.133.13z" id="path897-7-5-0" stroke-width=".015"/><path d="M15.21 5.517c-.266-.558.115-1.024.503-.929-.725-.145-.323 1.235-.504.929z" id="path897-4-8" stroke-width=".086"/></g><path id="rect84-3" d="M6.597 20.59c2.051 1.227 4.26 1.046 6.538.242v3.219H6.083z" opacity=".987" fill="#2ad4ff" fill-rule="evenodd" stroke-width=".776"/><g id="bottom-flashes" transform="translate(-1.828 -5.768)" fill="#e6e6e6"><path d="M9.685 28.067c.203.164.271-.051.225-.207-.028.067-.346.062-.225.207z" id="path897-7-5" stroke-width=".026"/><path d="M8.954 27.397c-.134.656.438.501.739.187-.502.447-.717-.43-.74-.187z" id="path897" stroke-width=".065"/><path d="M9.746 27.017c-.529.411.007.666.44.622-.672.014-.266-.792-.44-.622z" id="path897-7" stroke-width=".065"/></g></svg>