<svg xmlns="http://www.w3.org/2000/svg" xmlns:xlink="http://www.w3.org/1999/xlink" width="100" height="100" viewBox="0 0 26.458 26.458" id="svg86"><defs id="defs90"><linearGradient xlink:href="#b" id="i" gradientUnits="userSpaceOnUse" x1="404.099" y1="628.956" x2="412.03" y2="628.703"/><linearGradient id="b"><stop offset="0" stop-color="#fff" id="stop17"/><stop offset="1" stop-color="#fff" stop-opacity="0" id="stop19"/></linearGradient><linearGradient xlink:href="#b" id="linearGradient1120" gradientUnits="userSpaceOnUse" x1="404.099" y1="628.956" x2="412.03" y2="628.703"/></defs><path d="M.013.035l26.403.016.02 15.095c-6.628 6.668-17.622-2.085-26.407-3.46z" fill="#5aa028" id="path2"/><path d="M.028 11.71l-.039 14.784 26.459-.008-.049-11.367c-8.6 7.633-16.098-8.04-26.371-3.408z" fill="#ac9d93" id="path4"/><path d="M19.865 11.837c-3.51-2.456-1.13-6.615 1.533-6.584 1.04.31 2.68 1.077 2.66 3.05-.062 2.463-1.075 3.999-2.967 4.481" fill="green" id="path6"/><path d="M20.23 15.59c-2.783 1.488.286 2.845 2.104 2.228.632-.865 1.127-2.77-2.104-2.228z" fill="#520" id="path8"/><path d="M20.507 16.794l.116-6.023c-.24-.904-1.002-1.199-.1-1.374l.36.551.199-.966c.7.237.502 1.344.246 1.673l.64-.457.386.125-.89.755.214 5.846c-.512.024-.905.392-1.17-.13z" fill="#803300" id="path10"/><path d="M19.772 7.604a.188.203 0 0 1 .05.281.188.203 0 0 1-.26.056.188.203 0 0 1-.051-.281.188.203 0 0 1 .26-.056m1.83-1.02a.17.162 0 0 1 .047.225.17.162 0 0 1-.235.045.17.162 0 0 1-.046-.225.17.162 0 0 1 .235-.044m-.43 1.347a.207.223 0 0 1 .056.309.207.223 0 0 1-.286.061.207.223 0 0 1-.057-.31.207.223 0 0 1 .287-.06m-1.757 1.495a.188.203 0 0 1 .051.281.188.203 0 0 1-.26.056.188.203 0 0 1-.052-.281.188.203 0 0 1 .26-.056m3.39-.814a.17.182 0 0 1 .046.253.17.182 0 0 1-.234.05.17.182 0 0 1-.047-.253.17.182 0 0 1 .235-.05m-.215 2.556a.188.203 0 0 1 .051.28.188.203 0 0 1-.26.056.188.203 0 0 1-.052-.28.188.203 0 0 1 .26-.056m-2.478-.446a.188.203 0 0 1 .051.281.188.203 0 0 1-.26.056.188.203 0 0 1-.052-.281.188.203 0 0 1 .26-.056m-.788 5.064a.188.203 0 0 1 .051.28.188.203 0 0 1-.26.056.188.203 0 0 1-.052-.28.188.203 0 0 1 .26-.056m.113 1.418a.188.203 0 0 1 .052.28.188.203 0 0 1-.26.056.188.203 0 0 1-.052-.281.188.203 0 0 1 .26-.056m3.156-.77a.188.203 0 0 1 .051.282.188.203 0 0 1-.26.055.188.203 0 0 1-.052-.28.188.203 0 0 1 .26-.056" opacity=".987" fill="red" fill-rule="evenodd" id="path12"/><path d="M21.629 16.352c-3.704-2.41-1.192-6.493 1.616-6.463 1.097.304 2.827 1.058 2.806 2.994-.066 2.418-1.134 3.925-3.13 4.399" fill="green" id="path14"/><path d="M22.013 20.037c-2.935 1.46.302 2.792 2.22 2.187.665-.85 1.187-2.72-2.22-2.187z" fill="#520" id="path16"/><path d="M22.305 21.218l.122-5.913c-.253-.886-1.056-1.176-.104-1.348l.378.541.21-.948c.74.232.53 1.319.26 1.642l.675-.449.408.123-.94.74.226 5.74c-.54.023-.954.385-1.235-.128z" fill="#803300" id="path18"/><path d="M21.53 12.197a.198.199 0 0 1 .054.276.198.199 0 0 1-.275.055.198.199 0 0 1-.055-.276.198.199 0 0 1 .275-.055m1.93-1a.178.159 0 0 1 .05.22.178.159 0 0 1-.248.044.178.159 0 0 1-.049-.22.178.159 0 0 1 .248-.045m-.453 1.323a.218.219 0 0 1 .06.303.218.219 0 0 1-.303.06.218.219 0 0 1-.06-.303.218.219 0 0 1 .302-.06m-1.853 1.468a.198.199 0 0 1 .054.275.198.199 0 0 1-.275.055.198.199 0 0 1-.054-.276.198.199 0 0 1 .275-.054m3.575-.799a.178.179 0 0 1 .049.248.178.179 0 0 1-.248.05.178.179 0 0 1-.049-.249.178.179 0 0 1 .248-.049m-.227 2.509a.198.199 0 0 1 .054.275.198.199 0 0 1-.275.055.198.199 0 0 1-.054-.276.198.199 0 0 1 .275-.055m-2.615-.437a.198.199 0 0 1 .054.276.198.199 0 0 1-.275.054.198.199 0 0 1-.054-.275.198.199 0 0 1 .275-.055m-.832 4.97a.198.199 0 0 1 .054.276.198.199 0 0 1-.275.055.198.199 0 0 1-.054-.276.198.199 0 0 1 .275-.055m.119 1.392a.198.199 0 0 1 .054.276.198.199 0 0 1-.275.054.198.199 0 0 1-.054-.275.198.199 0 0 1 .275-.055m3.328-.755a.198.199 0 0 1 .054.275.198.199 0 0 1-.275.055.198.199 0 0 1-.054-.276.198.199 0 0 1 .275-.055" opacity=".987" fill="red" fill-rule="evenodd" id="path20"/><g id="dog5" transform="matrix(-.19684 0 0 .19355 11.759 5.825)"><path id="path1508-3" style="font-variation-settings:normal" d="M-3.797-4.594c-.186.118-.627-.06-.9.05-.56.229-.526-.716-.198-.518.264.159.388.09.644.063" fill="#4d4d4d" fill-rule="evenodd" stroke-width=".959"/><path id="path1508-3-2" style="font-variation-settings:normal" d="M-10.13-4.756c-.186.118-.627-.06-.9.05-.56.23-.526-.716-.198-.518.264.16.388.091.644.063" fill="#4d4d4d" fill-rule="evenodd" stroke-width=".959"/><path id="rect1405-1" d="M-10.881-8.043h.75v3.296h-.75c.488-.75.054-2.158 0-3.296z" fill="#666" fill-rule="evenodd" stroke-width=".147"/><path id="path1387" style="font-variation-settings:normal" d="M-11.484-15.411c1.408.6 2.403 2.007 1.46 2.901-.944.895-3.242 1.2-4.65.6-1.408-.6-1.9-1.234-.711-1.76 1.199-.529 2.872-1.874 3.93-1.775" fill="#b3b3b3" fill-rule="evenodd"/><path id="rect1405-6" d="M-4.565-7.372l.797-.508v3.296h-.75c.59-.846-.046-1.689-.047-2.788z" fill="#666" fill-rule="evenodd" stroke-width=".147"/><path id="path1387-1" style="font-variation-settings:normal" d="M-4.135-10.924c2.244.535.511 3.46-.098 3.684-1.903.7-10.755 2.472-8.296-4.36 0 0 2.563-1.17 2.031-.78-.315.232 4.016 1.854 5.407 1.487" fill="#b3b3b3" fill-rule="evenodd" stroke-width=".956"/><path id="rect1405" d="M-11.583-7.635h.75v3.296h-1.076c.72-.273.55-1.908.326-3.296z" fill="#b3b3b3" fill-rule="evenodd" stroke-width=".147"/><path id="rect1405-8" d="M-5.49-6.963l1.004-.623v3.295l-1.142-.032c1.382-.781.185-2.084.137-2.64z" fill="#b3b3b3" fill-rule="evenodd" stroke-width=".147"/><path id="rect1405-8-6" d="M-1.463-11.126c-.373.877-1.073 1.32-1.69 1.872l-.278-.697c.735-.03.953-1.242 1.968-1.175z" fill="#b3b3b3" fill-rule="evenodd" stroke-width=".147"/><path id="path1387-5" style="font-variation-settings:normal" d="M-15.347-13.586c.2.295.216.785-.083.959-.3.174-.79.06-.99-.234-.2-.295-.216-.52.084-.567.303-.047.803-.286.999-.165" fill="#333" fill-rule="evenodd" stroke-width=".26"/><path style="font-variation-settings:normal" id="path1469" d="M-13.446-14.733a.228.277 0 0 1 .063.385.228.277 0 0 1-.317.075.228.277 0 0 1-.063-.384.228.277 0 0 1 .317-.076" fill-rule="evenodd" stroke-width="1.55"/><path style="font-variation-settings:normal" id="path1469-3" d="M-12.989-13.836a.228.277 0 0 1 .062.385.228.277 0 0 1-.316.076.228.277 0 0 1-.063-.385.228.277 0 0 1 .317-.076" fill-rule="evenodd" stroke-width="1.55"/><path d="M-11.723-15.365l1.263.699c.126-.419.312-.8.014-1.475-.019-.163-1.076.07-1.277.776z" id="path1486" fill="#1a1a1a" stroke-width=".705"/><path d="M-11.634-14.788l.78 1.214c.309-.309.654-.556.712-1.29.061-.154-.98-.451-1.492.076z" id="path1486-1" fill="#333" stroke-width=".705"/><path id="rect1503" d="M-12.669-11.616c.818-.16 1.67-.255 2.372-.646l.323.245c-.786.437-1.71.701-2.741.83z" fill="#803300" fill-rule="evenodd" stroke-width=".147"/><path d="M-14.976-12.072c.592-.105.852-.342 1.011-.62" id="path1506" fill="none" stroke="#000" stroke-width=".3" stroke-linecap="round"/><path id="path1508" style="font-variation-settings:normal" d="M-10.848-4.334c-.186.118-.627-.06-.899.051-.56.228-.526-.717-.199-.519.265.16.389.092.644.063" fill="#b3b3b3" fill-rule="evenodd" stroke-width=".959"/><path id="path1508-1" style="font-variation-settings:normal" d="M-4.535-4.271c-.177.118-.595-.06-.853.05-.531.229-.499-.716-.188-.518.25.159.368.09.61.063" fill="#b3b3b3" fill-rule="evenodd" stroke-width=".934"/></g><path d="M4.812 18.102l-1.676-.15 2.614 5.291 13.481-1.663-1.435-1.462L6.57 21.126z" fill="#999" id="path70"/><path d="M17.642 12.357l-.051-.605c.962.773 2.143 1.696 2.973 1.562-.661.36-.197.501.359 1.26-1.17-.488-2.628-.712-3.28-2.217z" fill="#333" stroke="#000" stroke-width=".111" id="path72"/><path d="M4.806 18.081v-.687l-1.516.647zm12.976 2.101l.101-.745 1.28 2.026z" fill="#999" id="path74"/><path d="M10.007 20.838c.02-.304-1.288.138-2.161.162 1.67 1.6-2.265 3.413-7.823 2.312-.044.606.054 2.32.015 2.866 3.472 1.21 14.3-1.423 9.969-5.34z" fill="#0b2817" id="path80"/><path d="M26.413 23.684c-1.987.524-11.805-.423-15.476-.56-.113.629-2.633 1.518-2.55 2.022 3.237.87 18.023 1.131 18.023.78z" fill="#0b2817" id="path82"/><g id="house5"><path d="M6.647 12.659c-.3 1.105-2.749 1.922-3.897 2.789 5.867.296 12.386-.162 18.117-.802-1.334-.607-2.772-1.093-3.097-2.163z" fill="#333" stroke="#000" stroke-width=".111" id="path52"/><g id="g270"><path d="M17.687 9.984l-.05 2.35-.273-.164.014-2.386z" opacity=".987" fill="#520" fill-rule="evenodd" stroke="#002b00" stroke-width=".061" id="path22"/><path d="M6.822 5.352l-.854.59-.313 5.473 1.086.826.08-6.89 10.14.287-.099 6.506-10.121.097" fill="#333" id="path24"/><path d="M5.995 4.848c.3.433-.433.392-1.348.63.472.33 1.215.331 1.34.462 3.329.001 10.925.19 10.925.19.456.274 2.001-.174 1.756-.236-.205-.051-2.005-.15-1.728-.551z" fill="#1a1a1a" id="path26"/><path d="M5.093 4.708c2.258-.634 5.56-1.523 6.859-4.143 1.023 2.09 2.735 3.842 6.342 4.662-.146.48-10.491.465-13.2-.519z" fill="#1c241c" id="path28"/><path d="M7.928 9.106l1.769.01c-.063-.516.107-1.412-.904-1.789-1.06.354-.865 1.325-.865 1.779z" fill="#ccc" id="path30" stroke-width=".912"/><g id="g349" transform="matrix(.06613 0 0 .06412 -1.598 3.904)"><path d="M209.66 219.06c-2.552 5.392-3.814 18.688-3.137 19.322 3.484 1.66 4.442 1.95 9.201 3.163 10.49 2.675 8.764 2.166 9.85 1.223.155-.135 1.288-3.554 2.064-4.535 1.468.73 3.04 2.948 4.594 5.529 1.65 2.737 10.936-6.542 18.67-5.835-1.481-2.5-.387-11.249-6.335-19.43-31.56 1.416-23.479.388-34.907.563z" fill="#241f1c" stroke="#d38d5f" stroke-width=".25" transform="matrix(.2869 0 0 .30767 139.295 20.993)" id="path265"/><g fill="#c87137" id="g277"><path d="M206.71 238.42c1.282 14.869.18 27.348 5.53 42.494-.741 21.704 4.878 40.386 3.48 52.029 2.826 2.763 3.993.042 5.654.447-.97-12.666 2.476-29.152-.366-52.638 2.214-9.22 2.78-23.035 3.298-36.986z" stroke="#c87137" stroke-width=".213" transform="matrix(.2869 0 0 .30767 139.295 20.993)" id="path267"/><path d="M232.63 243.95l17.332-6.957c-1.217 27.008-1.472 31.079-3.23 43.228 3.075 17.416-1.275 34.566-1.06 50.9 1.8 1.523-3.647-.745-5.219.455 1.287-16.838-1.884-21.128-2.786-49.966-1.886-10.291-4.502-23.961-5.037-37.66z" stroke="#c87137" stroke-width=".202" transform="matrix(.2869 0 0 .30767 139.295 20.993)" id="path269"/><path d="M201.302 126.03l.004 2.566.469 2.238c.504.777.795.69.939.003l.438-2.532-.238-2.412c-.537 1.615-1.075 1.963-1.612.137zm7.106-.29l.004 2.607.47 2.273c.503.788.794.7.938.004l.438-2.571-.238-2.45c-.537 1.64-1.074 1.993-1.612.138z" id="path271"/><path d="M286.12 222.15c-3.65-3.213-8.004-10.844-15.736-20.62-6.58-8.32-6.489-11.101-2.549-9.026 5.853 3.082 13.976 18.336 15.73 20.597 5.726 7.384 6.212 12.25 2.589 9.08" fill-rule="evenodd" opacity=".932" stroke="#c87137" stroke-width=".876" transform="matrix(.2869 0 0 .30767 139.295 20.993)" id="path273"/><path d="M188 197.62c1.196-5.23 7.877-14.341 11.608-21.37 5.118-9.642 10.666-11.421 10.389-5.871-.4 8.01-10.257 17.269-14.265 22.014-6.3 7.458-8.912 10.463-7.744 5.276" fill-rule="evenodd" opacity=".932" stroke="#c87137" stroke-width="1.028" transform="matrix(.2869 0 0 .30767 139.295 20.993)" id="path275"/></g><path d="M202.587 68.738a2.826 3.977 0 0 1-1.224-5.35 2.826 3.977 0 0 1 3.8-1.73 2.826 3.977 0 0 1 1.233 5.346 2.826 3.977 0 0 1-3.796 1.744" fill="#c87137" fill-rule="evenodd" opacity=".932" id="path279"/><path d="M116.34 65.538l6.067-12.987-2.015 5.66 9.405-5.94-1.447 5.959c6.261-9.046 5.188-.093 6.746.06 1.843.182 1.186 5.408 2.03 6.723 1.042-1.964 2.43-6.522 3.472-12.181-2.468-3.822-3.165-8.68-7.106-8.14-3.884-3.835-8.03-2.55-10.516-2.244-1.912-.078-5.668-.178-7.96 4.49-1.763-1.045-.403 3.975-1.518 8.485-1.4 5.657 6.537 21.161 2.842 10.115z" fill="#28170b" stroke="#000" stroke-width=".22" transform="matrix(.26651 0 0 .2702 170.027 48.052)" id="path281"/><g fill="#c87137" id="g291"><g stroke="#c87137" id="g287"><path d="M168.06 224.85c1.196-5.23 8.988-15.555 13.207-22.17 2.093-3.281 11.053-11.615 9.55-6.087-1.4 5.154-10.217 14.128-15.663 22.23-5.447 8.102-8.273 11.263-7.104 6.075m99.39-29.728c-4.835-2.308-12.748-10.336-19.456-17.408-6.624-6.983-5.588-12.142-1.87-11.529 5.262.867 11.207 13.151 17.916 20.24 6.71 7.088 8.256 10.99 3.455 8.718" fill-rule="evenodd" opacity=".932" stroke-width="1.028" transform="matrix(.2869 0 0 .30767 139.295 20.993)" id="path283"/><path d="M220.93 155.46l-.507 6.09-13.934 5.582c4.476 1.94 3.657 3.59 3.547 5.582 5.19 3.506 12.648 5.356 16.85 4.28 8.422-.157 10.713-5.787 16.592-4.788-.51-3.855.693-4.687 2.713-6.343l-16.647-4.82-1.014-5.33c-2.01.965-4.253 1.462-7.6-.253z" stroke-width=".387" transform="matrix(.2869 0 0 .30767 139.295 20.993)" id="path285"/></g><path d="M201.098 123.538l.182 3.837 1.76.274-.244-4.078zm7.089-.775l.177 4.47 1.862.115-.394-4.679z" id="path289"/></g><path d="M210.01 172.91c3.66 12.694 4.511 16.78 7.004 23.895-5.575 9.598-8.518 20.63-6.635 22.266l34.625-.258c-1.11-5.42-2.632-12.742-8.33-22.29 2.503-4.048 3.79-12.824 6.121-24.09-4.36-1.106-9.282-.943-17.107 4.101-6.54-4.03-12.165-5.977-15.678-3.623z" fill="#241f1c" stroke="#c87137" stroke-width=".21" transform="matrix(.2869 0 0 .30767 139.295 20.993)" id="path293"/><path d="M302.51 211.49c-1.712-.838 1.843 6.544.164 3.614-2.046-3.632-10.493-15.725-5.756-12.985 1.657.957 5.841 4.837 7.126 7.988 1.286 3.15.438 2.683 2.505 8.61" fill="#c87137" fill-rule="evenodd" opacity=".932" stroke="#c87137" stroke-width="1.141" transform="matrix(.2869 0 0 .30767 136.662 26.891)" id="path295"/><path d="M12.244 123.13c1.712-.838-1.843 6.544-.164 3.614 2.046-3.632 10.493-15.725 5.756-12.985-1.657.957-5.841 4.838-7.126 7.988-1.286 3.15-.438 2.683-2.505 8.61" fill="#c87137" fill-rule="evenodd" opacity=".932" stroke="#c87137" stroke-width="1.141" transform="matrix(.2869 0 0 .30767 182.379 55.3)" id="path297"/><g id="g303"><path d="M202.08 70.77c-.889 2.166-1.906 2.307-2.588 3.163.19 1.467 1.902 4.84 1.707 6.793-.185 1.636-1.608 4.714-1.81 7.362 1.449.992 8.542 1.119 10.015-.173-.222-1.153-2.058-6.35-1.968-6.924-.005-2.631 2.172-6.909 1.36-7.173-.425-.431-3.26-3.355-3.256-3.277.035.52-.576-.799-.572-1.59-.707.588-1.402.574-2.456.009-.029.619-.025 1.253-.433 1.81z" id="path299"/><path d="M196.7 74.4c1.239.441 1.854 1.03 2.04 1.722 1.671-1.33 2.87-3.839 3.393-5.4-1.757.689-4.316 1.057-5.433 3.679zm14.72-1.4c-1.173.614-1.53 1.402-1.629 2.114-1.696-1.195-3.825-3.07-4.511-4.623 5.047 1.024 5.553 1.545 6.14 2.51z" id="path301"/></g><g stroke="#000" id="g327"><path d="M879.856 1103.538c-1.98 2.05-2.238 4.247-3.092 7.45.241 8.33-2.894 16.309-4.416 24.052 15.786 26.592 15.561 72.275 17.209 94.94-4.01 2.354-5.981 2.312-13.534 3.765l-19.48-98.7c4.637-4.754 16.38-26.594 17.313-33.362 2.065.157 4.797.875 6 1.855z" fill="#214478" stroke-width=".265" transform="matrix(.28689 -.00268 .0025 .30766 -45.458 -265.372)" id="path305"/><path d="M877.99 1104.137c-1.866 2.027-1.31 4.522-2.115 7.69-.252 8.56-3.686 15.973-5.12 23.633 14.876 26.305 15.623 71.656 17.176 94.077-3.78 2.33-3.239 1.488-10.356 2.926l-20.756-96.838c4.37-4.703 16.715-25.988 17.595-32.683 1.946.155 2.442.225 3.576 1.195z" fill="none" stroke-width=".434" stroke-dasharray="0.434275, 0.434275" transform="matrix(.28689 -.00268 .0025 .30766 -45.458 -265.372)" id="path307"/><path d="M867.897 1134.475c.702-2.347 1.268-3.284 2.444-5.798" fill="none" stroke-width=".06" transform="matrix(.28689 -.00268 .0025 .30766 -45.458 -265.372)" id="path309"/><path d="M850.228 1133.77c8.429.698 15.945 1.585 22.86-1.2-.054 1.226-.557 2.772.16 3.997-7.805 1.02-15.74 1.716-23.5.24.294-.968.785-1.87.48-3.037z" fill="#504" stroke-width=".265" transform="matrix(.28689 -.00268 .0025 .30766 -45.458 -265.372)" id="path311"/><path d="M839.991 1105.028c2.952 3.261 3.936 4.611 4.228 8.075.975 7.38 3.304 14.272 5.457 21.455-12.705 18.488-9.578 75.08-13.116 99.411 10.114 3.26 27.91 1.861 36.82-.303l-1.446-99.63c-5.996-2.996-24.417-22.761-26.07-31.687-1.802.077-3.432.896-5.873 2.679z" fill="#2c5aa0" stroke-width=".265" transform="matrix(.28689 -.00268 .0025 .30766 -45.458 -265.372)" id="path313"/><path d="M867.105 1136.872l-2.29 29.661c.857.606 1.63.699 2.274.027l1.658-29.99z" fill="#660080" stroke-width=".265" transform="matrix(.28689 -.00268 .0025 .30766 -45.458 -265.372)" id="path315"/><path d="M842.01 1105.082c2.52 3.082 3.518 7.875 3.768 11.149.831 6.975 4.025 12.431 5.862 19.22-13.817 21.502-10.497 73.778-13.516 96.775 8.629 3.08 26.53 2.079 34.13.033l-1.428-97.231c-5.115-2.832-23.833-23.082-25.244-31.519-1.537.073-1.49-.112-3.572 1.573z" fill="none" stroke-width=".423" stroke-dasharray="0.422799, 0.845597" transform="matrix(.28689 -.00268 .0025 .30766 -45.458 -265.372)" id="path317"/><path d="M867.145 1135.98l3.805 35.878c1.08.533 1.546-.16 2-.878l-4.267-35.768z" fill="#660080" stroke-width=".291" transform="matrix(.28689 -.00268 .0025 .30766 -45.458 -265.372)" id="path319"/><path d="M857.922 1135.6c-.784 2.227-1.715 3.854-2.2 7.285" fill="none" stroke-width=".037" transform="matrix(.28689 -.00268 .0025 .30766 -45.458 -265.372)" id="path321"/><path d="M858.037 1135.736c-.975-1.757-1.59-2.41-2.972-4.219" fill="none" stroke-width=".024" transform="matrix(.28689 -.00268 .0025 .30766 -45.458 -265.372)" id="path323"/><path d="M868.414 1134.26a1.542 1.703 0 0 1 .453 2.355 1.542 1.703 0 0 1-2.131.503 1.542 1.703 0 0 1-.46-2.352 1.542 1.703 0 0 1 2.129-.512" opacity=".977" fill-rule="evenodd" stroke-width=".007" transform="matrix(.28689 -.00268 .0025 .30766 -45.458 -265.372)" id="path325"/></g><g id="g347"><path d="M201.223 128.459c.915 1.075 1.362.652 2.03-.182.151 5.803-2.023 5.907-2.03.182z" id="path329"/><path d="M401.977 622.31c3.367 3.102 7.658 2.584 11.114-1.43-1.318 4.918-3.065 12.773-5.335 14.534-5.745-2.351-5.099-7.743-5.779-13.105z" opacity=".129" fill="url(#linearGradient1120)" transform="matrix(.16643 0 0 .28043 134.415 -45.551)" id="path331"/><path d="M201.285 128.514c.782 1.006 1.364.57 1.958-.175-.441 1.169-.236 3.889-.952 4.368-.612-.6-1.71-3.142-1.006-4.193z" opacity=".119" fill="none" id="path333"/><path d="M201.493 128.86c-.227-.166-.105.283-.295-.278-.082-6.706-.18-3.815.295.279zm1.545-.02c.144-.153.106.257.202-.231-.334-5.722-.591-5.303-.202.231z" id="path335"/><g id="g345"><path d="M210.299 128.26c-.916 1.076-1.363.653-2.03-.18-.152 5.803 2.022 5.907 2.03.18z" id="path337"/><path d="M401.977 622.31c3.367 3.102 7.658 2.584 11.114-1.43-1.318 4.918-3.065 12.773-5.335 14.534-5.745-2.351-5.099-7.743-5.779-13.105z" opacity=".129" fill="url(#i)" transform="matrix(-.16643 0 0 .28043 277.106 -45.75)" id="path339"/><path d="M210.236 128.316c-.781 1.006-1.364.57-1.957-.175.44 1.169.235 3.889.95 4.368.613-.6 1.71-3.142 1.007-4.193z" opacity=".119" fill="none" id="path341"/><path d="M210.027 128.583c.202-.2.142.264.253-.321-.708-6.648-.336-3.803-.253.321zm-1.494-.169c-.207-.13-.091.24-.269-.22-.155-5.583-.068-5.204.27.22z" id="path343"/></g></g></g><path d="M11.966 7.316c-.637.088-.952.542-.91 1.809l.894.016z" id="left-window" fill="gray" stroke-width=".265"/><path d="M11.924 7.316c.636.088.951.542.91 1.809l-.894.016c.017-.97.01-1.538-.016-1.825z" id="right-window" fill="gray" stroke-width=".265"/><path id="rect1124" opacity=".987" fill="#333" fill-rule="evenodd" stroke-width=".423" d="M10.559 9.124h3.069v2.921h-3.069z"/><path opacity=".987" fill="#520" fill-rule="evenodd" stroke="#002b00" stroke-width=".066" d="M6.878 9.912h10.815v.58H6.878z" id="path34"/><path d="M5.34 9.135l-.03 2.312-.273.188L5 9.225z" opacity=".987" fill="#520" fill-rule="evenodd" stroke="#002b00" stroke-width=".061" id="path36"/><path d="M5.006 9.26l1.92.666-.06.524c-.609-.147-1.217-.438-1.86-.702zm1.818 1.56h10.841v.53H6.824z" opacity=".987" fill="#520" fill-rule="evenodd" stroke="#002b00" stroke-width=".066" id="path38"/><path d="M5.545 11.223l-.513.428 1.59.958 11.046-.202-.333-.378-10.534.1z" stroke="#000" stroke-width=".111" id="path40"/><path d="M5.055 10.193l1.862.647-.093.487-1.795-.696z" opacity=".987" fill="#520" fill-rule="evenodd" stroke="#002b00" stroke-width=".066" id="path42"/><path d="M5.801 9.507l-.126 2.573-.274-.267.05-2.495z" opacity=".987" fill="#520" fill-rule="evenodd" stroke="#002b00" stroke-width=".079" id="path44"/><path d="M6.66 9.773l-.101 2.868c-.114-.098-.211-.189-.456-.351l.153-2.694zm1.685.16L8.31 12.46l-.408-.015.022-2.563zm1.632.03L9.94 12.49l-.407-.015.022-2.563zm1.685.018l-.036 2.525-.408-.014.022-2.563zm1.812-.018l-.036 2.526-.408-.015.022-2.563zm1.795.054l-.037 2.525-.408-.014.023-2.564zm2.03-.107l-.037 2.525-.408-.014.022-2.564z" opacity=".987" fill="#520" fill-rule="evenodd" stroke="#002b00" stroke-width=".077" id="path46"/><path d="M6.62 16.055c.014.009 11.412-.607 11.414-.492l.003-.77c.23.302-11.525.537-11.457.41l-1.755-.477.036.664z" fill="#803300" stroke="#1a1a1a" stroke-width=".096" id="path48"/><path d="M6.688 16.122l-1.75-.976-.127 2.893 1.724 3.06z" fill="#333" stroke="#000" stroke-width=".087" id="path50"/><path d="M6.648 16.1l-.063 4.99 11.214-.985.253-4.578z" fill="#4d4d4d" stroke="#000" stroke-width=".087" id="path54"/><g fill="#f9f9f9" fill-rule="evenodd" stroke="#002b00" id="g62" transform="matrix(.99799 0 0 1.0014 0 0)" stroke-width=".123"><path d="M19.066 64.056l4.656-.174.172 2.606-4.695.29z" opacity=".987" transform="matrix(.32702 0 0 .32706 9.677 -4.843)" id="path56"/><path d="M11.999 64.27l4.828-.18.07 2.727-4.867.218z" opacity=".987" transform="matrix(.32702 0 0 .32706 9.677 -4.843)" id="path58"/><path d="M4.288 64.472l5.172-.274.229 2.903-5.33.12z" opacity=".987" transform="matrix(.32702 0 0 .32706 9.677 -4.843)" id="path60"/></g><path d="M7.979 16.65l1.957-.07v4.347l-2.175.25z" opacity=".987" fill="#520" fill-rule="evenodd" stroke="#002b00" stroke-width=".066" id="path64"/><path d="M8.687 18.71c-.056.043-.139.024-.18-.03-.051-.07-.027-.167.042-.215.083-.058.2-.03.255.051.066.095.033.226-.062.289a.244.244 0 0 1-.332-.072.263.263 0 0 1 .084-.364.301.301 0 0 1 .408.093.315.315 0 0 1-.053.398m.525-.265c-.026.06-.102.081-.16.055-.073-.034-.098-.123-.064-.192.042-.084.149-.112.231-.071.097.048.13.169.08.262-.056.107-.195.143-.302.087a.244.244 0 0 1-.097-.332.28.28 0 0 1 .374-.104c.124.067.18.215.138.347" fill="none" stroke="#000" stroke-width=".111" id="path66"/><path d="M8.994 16.686l-.037 4.348" stroke="#000" stroke-width=".111" id="path68"/><path d="M5.013 11.628C3.93 12.893 2.13 13.159.596 13.724c1.89-.078 2.007.754 2.125 1.816 1.187-.889 3.403-1.76 3.918-2.889z" fill="#333" stroke="#000" stroke-width=".072" id="path76"/><path d="M12.021.324a.158.346 0 0 1 .044.48.158.346 0 0 1-.22.096.158.346 0 0 1-.043-.481.158.346 0 0 1 .22-.095" fill="#1a1a1a" fill-rule="evenodd" id="path78"/><path d="M14.485 9.128l1.627.01c-.058-.533.098-1.461-.83-1.852-.976.367-.797 1.372-.797 1.842z" fill="#ccc" id="path30-7" stroke-width=".89"/></g></g><g id="sign5" transform="matrix(1.06408 0 0 .97822 -.803 5.237)"><path id="rect988" opacity=".987" fill="#1a1a1a" fill-rule="evenodd" stroke="#542403" stroke-width=".682" d="M21.73-4.969h3.532v7.433H21.73z"/><text style="line-height:1.25" x="26.244" y="-1.788" id="text998" transform="scale(.83702 1.19472)" font-size="1.982" font-family="sans-serif" fill="#b3b3b3" stroke-width=".165"><tspan id="tspan996" x="26.244" y="-1.788">Not</tspan></text><text style="line-height:1.25" x="35.563" y=".689" id="text998-0" transform="scale(.61885 1.61589)" font-size="1.978" font-family="sans-serif" fill="#b3b3b3" stroke-width=".165"><tspan id="tspan996-3" x="35.563" y=".689">Here</tspan></text></g></svg>