<svg xmlns="http://www.w3.org/2000/svg" xmlns:xlink="http://www.w3.org/1999/xlink" id="svg8" width="100" height="100"><defs id="defs2"><path id="rect992" d="M-7.315 3.925h3.553v3.739h-3.553z"/><filter id="g" x="-.043" width="1.087" y="-.16" height="1.32" color-interpolation-filters="sRGB"><feGaussianBlur stdDeviation=".833" id="feGaussianBlur13"/></filter><radialGradient xlink:href="#b" id="h" cx="-645.596" cy="559.941" fx="-645.596" fy="559.941" r="1.361" gradientTransform="matrix(.29234 0 0 .22306 165.374 -126.517)" gradientUnits="userSpaceOnUse"/><linearGradient id="b"><stop offset="0" stop-color="#fff" id="stop17"/><stop offset="1" stop-color="#fff" stop-opacity="0" id="stop19"/></linearGradient></defs><path d="M99.688.02c.168 17.392.308 46.814.246 51.4L.22 57.801.045.112z" id="path5655" fill="#71ac37" stroke-width=".332"/><path d="M.219 57.802l-.09 41.949c33.31.46 76.833.254 99.42-.048l.257-47.507c-5.123-8.197-58.553-19.26-99.587 5.606z" id="path4997-8" fill="#ac9d93" stroke-width=".332"/><path d="M77.991 57.06c-1.29 2.422-4.914 2.139-5.514.107-5.397.288-4.107-6.141-1.754-6.548-1.71-1.468-1.755-8.695 5.138-7.084 6.578-4.575 10.883 1.17 9.586 3.596 5.68 1.359 2.349 4.19 1.19 7.728-1.179 3.344-6.27 5.304-8.646 2.2z" id="path1626-8-2" fill="green" stroke-width=".282"/><path d="M24.612 69.901c-1.576 2.744-6.01 2.423-6.744.122-6.6.326-5.023-6.957-2.145-7.417-2.09-1.663-2.147-9.851 6.284-8.026 8.046-5.183 13.31 1.326 11.725 4.074 6.948 1.54 2.873 4.746 1.456 8.755-1.443 3.788-7.669 6.007-10.576 2.492z" id="path1626-8-9" fill="green" stroke-width=".332"/><path d="M26.994 63.82c-1.29 2.422-4.914 2.14-5.514.108-5.397.287-4.107-6.142-1.755-6.548-1.708-1.468-1.755-8.696 5.138-7.084 6.579-4.576 10.883 1.17 9.587 3.596 5.68 1.359 2.348 4.19 1.19 7.728-1.18 3.344-6.27 5.303-8.646 2.2z" id="path1626-8-2-1" fill="#050" stroke-width=".282"/><path d="M81.056 69.676c-1.577 2.744-6.01 2.423-6.744.121-6.6.326-5.023-6.957-2.146-7.417-2.09-1.663-2.147-9.85 6.284-8.025 8.047-5.183 13.311 1.326 11.726 4.073 6.947 1.54 2.872 4.747 1.456 8.755-1.443 3.788-7.67 6.008-10.576 2.493z" id="path1626-8" fill="#0a0" stroke-width=".332"/><path d="M.326 89.827l.09 8.919 65.967.812-4.362-11.172C47.07 92.133 21.31 89.498.326 89.827z" id="path4963" fill="#0b2817" stroke="#0b2817" stroke-width=".332"/><path d="M59.973 71.088l-9.631.817c11.362 8.867 11.324 18.442 15.728 27.74l11.122-.637c-4.76-9.55-5.45-20.108-17.22-27.92z" id="path4963-0" fill="#0b2817" stroke="#0b2817" stroke-width=".332"/><g id="dog6" transform="matrix(-.74577 0 0 .7305 61.475 34.947)"><path id="path1508-3" style="font-variation-settings:normal" d="M-3.797-4.594c-.186.118-.627-.06-.9.05-.56.229-.526-.716-.198-.518.264.159.388.09.644.063" fill="#4d4d4d" fill-rule="evenodd" stroke-width=".959"/><path id="path1508-3-2" style="font-variation-settings:normal" d="M-10.13-4.756c-.186.118-.627-.06-.9.05-.56.23-.526-.716-.198-.518.264.16.388.091.644.063" fill="#4d4d4d" fill-rule="evenodd" stroke-width=".959"/><path id="rect1405-1" d="M-10.881-8.043h.75v3.296h-.75c.488-.75.054-2.158 0-3.296z" fill="#666" fill-rule="evenodd" stroke-width=".147"/><path id="path1387" style="font-variation-settings:normal" d="M-11.484-15.411c1.408.6 2.403 2.007 1.46 2.901-.944.895-3.242 1.2-4.65.6-1.408-.6-1.9-1.234-.711-1.76 1.199-.529 2.872-1.874 3.93-1.775" fill="#b3b3b3" fill-rule="evenodd"/><path id="rect1405-6" d="M-4.565-7.372l.797-.508v3.296h-.75c.59-.846-.046-1.689-.047-2.788z" fill="#666" fill-rule="evenodd" stroke-width=".147"/><path id="path1387-1" style="font-variation-settings:normal" d="M-4.135-10.924c2.244.535.511 3.46-.098 3.684-1.903.7-10.755 2.472-8.296-4.36 0 0 2.563-1.17 2.031-.78-.315.232 4.016 1.854 5.407 1.487" fill="#b3b3b3" fill-rule="evenodd" stroke-width=".956"/><path id="rect1405" d="M-11.583-7.635h.75v3.296h-1.076c.72-.273.55-1.908.326-3.296z" fill="#b3b3b3" fill-rule="evenodd" stroke-width=".147"/><path id="rect1405-8" d="M-5.49-6.963l1.004-.623v3.295l-1.142-.032c1.382-.781.185-2.084.137-2.64z" fill="#b3b3b3" fill-rule="evenodd" stroke-width=".147"/><path id="rect1405-8-6" d="M-1.463-11.126c-.373.877-1.073 1.32-1.69 1.872l-.278-.697c.735-.03.953-1.242 1.968-1.175z" fill="#b3b3b3" fill-rule="evenodd" stroke-width=".147"/><path id="path1387-5" style="font-variation-settings:normal" d="M-15.347-13.586c.2.295.216.785-.083.959-.3.174-.79.06-.99-.234-.2-.295-.216-.52.084-.567.303-.047.803-.286.999-.165" fill="#333" fill-rule="evenodd" stroke-width=".26"/><path style="font-variation-settings:normal" id="path1469" d="M-13.446-14.733a.228.277 0 0 1 .063.385.228.277 0 0 1-.317.075.228.277 0 0 1-.063-.384.228.277 0 0 1 .317-.076" fill-rule="evenodd" stroke-width="1.55"/><path style="font-variation-settings:normal" id="path1469-3" d="M-12.989-13.836a.228.277 0 0 1 .062.385.228.277 0 0 1-.316.076.228.277 0 0 1-.063-.385.228.277 0 0 1 .317-.076" fill-rule="evenodd" stroke-width="1.55"/><path d="M-11.723-15.365l1.263.699c.126-.419.312-.8.014-1.475-.019-.163-1.076.07-1.277.776z" id="path1486" fill="#1a1a1a" stroke-width=".705"/><path d="M-11.634-14.788l.78 1.214c.309-.309.654-.556.712-1.29.061-.154-.98-.451-1.492.076z" id="path1486-1" fill="#333" stroke-width=".705"/><path id="rect1503" d="M-12.669-11.616c.818-.16 1.67-.255 2.372-.646l.323.245c-.786.437-1.71.701-2.741.83z" fill="#803300" fill-rule="evenodd" stroke-width=".147"/><path d="M-14.976-12.072c.592-.105.852-.342 1.011-.62" id="path1506" fill="none" stroke="#000" stroke-width=".3" stroke-linecap="round"/><path id="path1508" style="font-variation-settings:normal" d="M-10.848-4.334c-.186.118-.627-.06-.899.051-.56.228-.526-.717-.199-.519.265.16.389.092.644.063" fill="#b3b3b3" fill-rule="evenodd" stroke-width=".959"/><path id="path1508-1" style="font-variation-settings:normal" d="M-4.535-4.271c-.177.118-.595-.06-.853.05-.531.229-.499-.716-.188-.518.25.159.368.09.61.063" fill="#b3b3b3" fill-rule="evenodd" stroke-width=".934"/></g><g id="house6"><path d="M24.976 37.448c12.668-5.846 22.905-16.033 30.109-25.974 7.402 13.513 19.87 20.611 29.583 26.77l-2.1 1.913c-9.342-6.794-22.062-13.062-27.308-23.584C49.233 27.547 38.242 32.847 27.6 39.201z" id="path4668" fill="#c87137" stroke-width=".306"/><g id="g305"><path d="M41.822 17.463c.649-1.553 2.078-1.113 2.17-.227 1.56.596.598 1.476-.082 1.532.051 1.119-1.992.685-1.75.16-1.16.02-1.69-1.143-.338-1.465z" id="smoke" opacity=".987" fill="#fff" stroke-width=".062"/><path id="rect4664" fill="#784421" fill-rule="evenodd" stroke="#500" stroke-width=".577" d="M26.637 65.824h56.34v5.712h-56.34z"/><path id="rect4666" fill="#d38d5f" fill-rule="evenodd" stroke-width=".618" d="M35.026 34.615h40.262v31.038H35.026z"/><path d="M27.061 38.53c11.777-5.229 21.294-14.34 27.99-23.232 6.882 12.087 18.472 18.436 27.502 23.945l-1.953 1.71c-8.684-6.076-20.51-11.682-25.386-21.094-5.602 9.816-15.82 14.557-25.712 20.24z" id="path4668-3" fill="#a05a2c" stroke-width=".279"/><path d="M28.987 40.01c11.108-5.132 20.084-14.074 26.4-22.8 6.491 11.862 17.424 18.093 25.94 23.5l-2.8 1.328c-8.19-5.964-18.823 2.097-23.423-7.139-5.284 9.632-14.485 1.073-23.815 6.65z" id="path4668-3-7" fill="#c87137" stroke="#500" stroke-width=".269"/><path id="rect4700" fill="#d38d5f" fill-rule="evenodd" stroke="#500" stroke-width=".4" d="M30.746 41.2h1.559v24.684h-1.559z"/><path id="rect4700-4" fill="#d38d5f" fill-rule="evenodd" stroke="#500" stroke-width=".392" d="M77.772 41.606h1.48v24.189h-1.48z"/><path id="rect4717" fill="#d38d5f" fill-rule="evenodd" stroke="#500" stroke-width=".551" d="M44.479 43.822h13.654v22.15H44.479z"/><path id="rect4717-7-9" fill="#ffd5d5" fill-rule="evenodd" stroke-width=".17" d="M45.34 44.686h4.929v5.841H45.34z"/><path id="rect4717-7-9-3" fill="#ffd5d5" fill-rule="evenodd" stroke-width=".168" d="M51.73 44.766h4.754v5.921H51.73z"/><path id="rect4717-7-9-4" fill="#ffd5d5" fill-rule="evenodd" stroke-width=".17" d="M45.165 51.419h4.929v5.841h-4.929z"/><path id="rect4717-7-9-6" fill="#ffd5d5" fill-rule="evenodd" stroke-width=".17" d="M51.555 51.18h4.929v5.841h-4.929z"/><path id="rect4717-7-9-9" fill="#ffd5d5" fill-rule="evenodd" stroke-width=".17" d="M45.253 58.191h4.929v5.841h-4.929z"/><path id="rect4717-7-9-37" fill="#ffd5d5" fill-rule="evenodd" stroke-width=".17" d="M51.642 58.271h4.929v5.841h-4.929z"/><path d="M40.6 18.032l.257 9.302c1.499-.977 2.998-1.679 4.497-3.95l-.514-7.136c-1.315.267-2.007.229-4.24 1.784z" id="path4925" fill="#a05a2c" stroke-width=".332"/><path id="rect4717-7-7" fill="#333" fill-rule="evenodd" stroke="#500" stroke-width=".422" d="M58.362 43.793h8.078v21.948h-8.078z"/><g id="girl" transform="matrix(.27503 0 0 .27514 68.656 52.35)"><path d="M-26.1-15.491c-.017 1.061-.392 2.013-.83 2.945l5.367-.41c-.354-.759-1.038-1.513-1.058-2.572z" stroke="#000" stroke-width=".08" id="path97"/><path d="M-29.355 11.082c.374 4.682-.268 8.71 1.297 13.479-.217 6.834 1.387 12.034 1.017 16.382.826.87 1.167.013 1.653.14-.34-4.547.723-9.178-.107-16.574.647-2.903.813-7.253.964-11.646z" fill="#c87137" stroke="#c87137" stroke-width=".065" id="path99"/><path d="M-22.097 12.921l4.57-2.343c-.356 8.504.067 9.938-.447 13.764.899 5.484-.397 10.869-.145 15.992 0 0-1.231-.2-1.69.178.375-5.25-.552-6.653-.816-15.733-.55-3.24-1.315-7.544-1.472-11.858z" fill="#c87137" stroke="#c87137" stroke-width=".061" id="path101"/><path d="M-26.926 43.61l.004 2.626.478 2.29c.514 1.296.81.835.957.004l.446-2.592-.242-2.468c-.548 1.653-1.095 2.008-1.643.14zm7.243-.297l.005 2.667.572 2.174c.23.8.711.87.862.156l.446-2.631-.242-2.507c-.548 1.678-1.095 2.04-1.643.142z" fill="#c87137" id="path103"/><path d="M-25.517-14.944l-.148 1.918-4.074 1.758c1.309.61 1.128 1.243 1.096 1.87.325 1.583 2.178 1.888 4.867 1.373 2.591.215 4.4.598 4.648-1.759-.078-.862.125-1.246.762-1.956l-4.633-1.446-.296-1.678c-.588.304-1.244.46-2.222-.08z" fill="#c87137" stroke="#c87137" stroke-width=".117" id="path105"/><path d="M-27.045 40.946l.1 4.039 1.793.28-.24-4.178zm7.231-.431l.18 4.349 1.733.042-.222-4.57c-.62-.24-1.197-.258-1.69.18zM-28.63-9.181c1.07 3.998 1.237 5.02 1.965 7.26-1.63 3.022-2.16 5.784-2.176 7.011 3.453.57 6.906.57 10.36-.08-.325-1.707-.67-3.977-2.336-6.983.567-2.11.961-3.873 1.643-7.37-2.373-.163-2.393-.127-4.552 1.115-1.566-1.25-2.449-1.358-4.904-.952z" fill="#c87137" id="path107"/><g fill="#c87137" fill-rule="evenodd" stroke="#c87137" id="g115" transform="matrix(1.00001 0 0 1.00001 -131.37 -82.902)"><path d="M135.954 110.646c-3.65-3.214-8.004-10.845-15.736-20.62-6.58-8.32-6.489-11.101-2.548-9.026 5.852 3.082 13.976 18.336 15.729 20.596 5.727 7.385 6.212 12.25 2.59 9.08" opacity=".932" stroke-width=".876" transform="matrix(.25776 .14855 -.13792 .27763 96.06 41.848)" id="path109"/><path d="M117.27 83.66c-4.835-2.308-12.528-10.55-19.456-17.408-7.369-7.294-5.654-12.01-1.87-11.53 5.29.674 11.206 13.152 17.916 20.24 6.71 7.09 8.256 10.99 3.456 8.72" opacity=".932" stroke-width="1.028" transform="matrix(.25776 .14855 -.13792 .27763 96.06 41.848)" id="path111"/><path d="M143.163 119.158c-1.712-.838 1.844 6.544.164 3.614-2.045-3.632-10.493-15.725-5.756-12.986 1.657.958 5.842 4.838 7.127 7.988 1.285 3.15.437 2.683 2.505 8.61" opacity=".932" stroke-width="1.141" transform="matrix(.25776 .14855 -.13792 .27763 96.06 41.848)" id="path113"/></g><path d="M-18.09-11.238a.243 13.391 11.484 0 1-3.63 18.2.243 13.391 11.484 0 1-1.07 3.573.243 13.391 11.484 0 1 3.625-18.187.243 13.391 11.484 0 1 1.084-3.64L-20.438-.366z" opacity=".168" fill="#fea" fill-rule="evenodd" id="path125"/><path d="M-18.935-12.901c.418.122 1.07.172 1.368.18 0 0-3.66 18.494-4.552 23.016l-1.347 4.125-.022-4.32z" opacity=".568" fill="#fff" id="path127"/><path d="M-32.763 10.484c.39-1.472.255-4.235.612-8.14.304-3.324-.157-4.046-.799-2.825-.952 1.812-.54 7.236-.614 8.133-.242 2.931.407 4.303.797 2.846" opacity=".932" fill="#c87137" fill-rule="evenodd" stroke="#c87137" stroke-width=".266" id="path147"/><path d="M-32.03-.323c1.05-1.252 2.213-4.574 3.322-7.401 1.18-3.007.192-4.175-.778-3.581-1.355.83-1.565 5.173-2.59 8.04-1.025 2.869-1.009 4.19.036 2.953" opacity=".932" fill="#c87137" fill-rule="evenodd" stroke="#c87137" stroke-width=".312" id="path149"/><path d="M-27.068-3.175c-.366-1.072-1.72-5.748-2.239-8.402.674-.25 2.752-1.407 3.67-1.474l2.7-.197c.49-.036 3.76.888 4.44 1.306-.138 2.654-1.369 6.303-1.794 8.617.523 1.633 1.317 4.782 1.57 6.231-1.396 1.15-8.044.986-9.787.01.26-1.766 1.21-4.499 1.44-6.09z" fill-rule="evenodd" id="path151"/><path d="M-28.5 38.806c1.007.43 3.205 1.103 4.238-.285.076-1.983.715-27.13.914-28.023.463.848 2.516 27.423 2.5 28.428-.007.445 2.241.662 4.168-.122.068-.807.53-33.07-2.069-35.222-2.367.736-6.858.904-9.84-.167-2.018 2.89-.15 32.362.088 35.39z" fill="#b3b3b3" id="path153"/><path d="M-33.07 13.418c.37-.667 1.057 2.387.897 1.338-.202-1.322-.748-5.97-1.024-4.336-.1.592-.9 1.808-.682 2.853.218 1.045.223 1.1.368 1.173" opacity=".987" fill="#c87137" fill-rule="evenodd" stroke="#c87137" stroke-width=".346" id="path155"/><path d="M-21.548-13.055l-7.379 52.945c6.46 1.763 13.65 2.434 19.379-1.148-1.745-14.348-5.621-28.936-10.4-41.649.782-1.933 1.322-3.364 1.188-6.284-1.631 7.108.861 17.126 2.873 20.26.958.002 2.429.43 2.715-.16-1.453-2.84-.557-18.808-4.465-22.998-1.23-.56-2.557-.807-3.912-.967z" opacity=".977" fill="#2b0000" stroke="#000" stroke-width=".08" stroke-dasharray="0.0802735, 0.0802735" id="path157"/><path d="M-26.626-12.837c5.96 17.408 6.202 35.697 9.302 53.545-7.022-.223-4.903 2.3-16.359-.885 1.745-14.347 1.914-29.644 6.693-42.357-.594-1.73-1.645-3.24-1.511-6.16 1.18 7.707-.378 17.6-1.99 20.664-.533-.296-3.022-.78-3.862-1.806.17-3.002.324-8.21.982-11.212.985-4.493 2.524-8.435 3.609-10.682 1.18-.625 1.836-.805 3.136-1.107z" opacity=".955" fill="#2b0000" stroke="#000" stroke-width=".08" stroke-dasharray="0.0802735, 0.0802735" id="path159"/><path d="M-13.114 10.89l-.256-.984c-1.644-1.442-1.415.733-2.287.91l.537.858c.773-.1 1.436-.25 2.006-.785z" fill="#501616" id="path161"/><path d="M-27.3-2.962c.913.763 4.902.866 7.244.24l.488 1.484c-1.451.198-6.227.767-8.266-.096.083-.583.368-1.134.533-1.628z" fill="#501616" stroke="#000" stroke-width=".08" id="path163"/><g fill="#fff" id="g171" transform="matrix(1.00001 0 0 1.00001 -131.37 -82.902)"><path d="M118.72 118.885c-.103-.148-.268-.423-.487-.244-.13.214.112.591.43.877.31-.225.692-.573.5-.769-.077-.15-.326-.078-.443.136z" id="path165"/><path d="M118.102 119.817c-.053.168-.167.46.119.514.257-.035.404-.447.428-.86-.382-.093-.91-.165-.944.098-.07.15.148.292.397.248z" id="path167"/><path d="M119.145 119.886c.182-.017.508-.027.44-.3-.141-.213-.596-.187-1-.052.073.373.226.867.49.797.173.005.216-.242.07-.445z" id="path169"/></g><g stroke="#000" id="g179" transform="matrix(1.00001 0 0 1.00001 -131.37 -82.902)"><path d="M-653.59 706.487c-.16 1.498 4.612 1.782 6.109-.152l.476 5.398c-.353 5.975-1.06 8.73-2.732 10.44-2.533-1.1-3.646-4.533-4.158-9.888z" fill="#500" stroke-width=".132" transform="matrix(.29234 0 0 .31487 295.458 -94.992)" id="path173"/><path d="M-652.34 699.089c-.277 2.682-.307 5.446-1.182 7.928.289.399.735.651 1.37.565.135-3.24.53-5.546.887-8.412 1.02 2.656 2.291 5.285 2.715 8.009.398-.26.952-.302 1.021-1.022-1.184-2.076-2.002-4.52-2.687-7.095z" fill="maroon" stroke-width=".106" transform="matrix(.29234 0 0 .31487 295.458 -94.992)" id="path175"/><path d="M-653.818 696.59l.054 2.257c2.575.829 3.918.393 5.94-.161l-.215-2.42c-1.871 1.03-3.771 1.36-5.779.323z" fill="#500" stroke-width=".106" transform="matrix(.29234 0 0 .31487 295.458 -94.992)" id="path177"/></g><g stroke="#000" id="g187" transform="matrix(1.00001 0 0 1.00001 -131.37 -82.902)"><path d="M-653.59 706.487c-.16 1.498 4.612 1.782 6.109-.152l.476 5.398c-.353 5.975-1.06 8.73-2.732 10.44-2.533-1.1-3.646-4.533-4.158-9.888z" fill="#500" stroke-width=".132" transform="matrix(.29234 0 0 .31487 302.762 -94.974)" id="path181"/><path d="M-652.34 699.089c-.277 2.682-.307 5.446-1.182 7.928.289.399.735.651 1.37.565.135-3.24.53-5.546.887-8.412 1.02 2.656 2.291 5.285 2.715 8.009.398-.26.952-.302 1.021-1.022-1.184-2.076-2.002-4.52-2.687-7.095z" fill="maroon" stroke-width=".106" transform="matrix(.29234 0 0 .31487 302.762 -94.974)" id="path183"/><path d="M-653.818 696.59l.054 2.257c2.575.829 3.918.393 5.94-.161l-.215-2.42c-1.871 1.03-3.771 1.36-5.779.323z" fill="#500" stroke-width=".106" transform="matrix(.29234 0 0 .31487 302.762 -94.974)" id="path185"/></g><path d="M-23.034-1.984a.582.464 0 0 1 .161.642.582.464 0 0 1-.804.131.582.464 0 0 1-.169-.64.582.464 0 0 1 .802-.138l-.314.39z" opacity=".79" fill-rule="evenodd" stroke="#000" stroke-width=".018" id="path189"/><path d="M-23.141-1.867a.392.297 0 0 1 .111.407.392.297 0 0 1-.535.093.392.297 0 0 1-.132-.404.392.297 0 0 1 .53-.108" opacity=".79" fill="#fff" fill-rule="evenodd" stroke="#000" stroke-width=".012" id="path191"/><path d="M-23.143-1.865a.392.297 0 0 1 .11.408.392.297 0 0 1-.534.092.392.297 0 0 1-.132-.404.392.297 0 0 1 .53-.108" opacity=".79" fill="url(#h)" fill-rule="evenodd" stroke="#000" stroke-width=".012" id="path193"/><path d="M-23.873-1.825c-.488.029-.387.538.033.479z" stroke="#000" stroke-width=".08" id="path195"/><path d="M-22.842-1.85c.491-.042.462.43.034.435z" stroke="#000" stroke-width=".077" id="path197"/><path d="M-20.839-1.057c.083.087.27.134.314.203" fill="none" stroke="#000" stroke-width=".12" id="path199"/><g id="g211" transform="matrix(1.00001 0 0 1.00001 -131.37 -82.902)"><path transform="matrix(.5227 -.0255 .02288 .53205 432.538 -214.032)" opacity=".79" fill="#d4aa00" fill-rule="evenodd" stroke="#000" stroke-width=".129" d="M-639.69 527.98h2.569v5.646h-2.569z" id="path201"/><path d="M-614.417 558.464a.378.312 0 0 1 .117.415.378.312 0 0 1-.494.124.378.312 0 0 1-.184-.398.378.312 0 0 1 .47-.178l-.12.296z" opacity=".99" fill-rule="evenodd" stroke="#000" stroke-width=".099" transform="matrix(.5233 0 0 .53256 432.538 -214.032)" id="path203"/><text style="line-height:1.25" x="-778.869" y="440.336" transform="matrix(.42534 -.01416 .02105 .6545 432.538 -214.032)" font-size="2.086" font-family="sans-serif" stroke-width=".156" id="text207"><tspan x="-778.869" y="440.336" id="tspan205">卫</tspan></text><path d="M-615.318 562.335l1.035.39.9-.457-.04-3.037c-.82.055-1.081.034-2.002.08z" fill="none" stroke="#520" stroke-width=".185" transform="matrix(.5233 0 0 .53256 432.538 -214.032)" id="path209"/></g><g id="g239" transform="matrix(1.00001 0 0 1.00001 -131.37 -82.902)"><path d="M-631.461 476.153c-.386 2.345.051 6.488-1.327 8.238l9.76.312c-1.565-1.985-1.435-6.333-1.64-8.706z" stroke="#000" stroke-width=".265" transform="matrix(.29228 0 0 .3306 290.534 -100.617)" id="path213"/><path d="M105.753 67.853a2.879 4.273 0 0 1-1.247-5.749 2.879 4.273 0 0 1 3.87-1.858 2.879 4.273 0 0 1 1.258 5.744 2.879 4.273 0 0 1-3.868 1.873" fill="#c87137" fill-rule="evenodd" id="path215"/><path d="M-625.137 490.169c-1.144 4.662-7.915 8.245-12.805 9.994-1.911-7.164-.658-15.27 8.745-16.553 12.936.153 12.89 10.18 11.634 14.835-2.755-1.175-5.987-3.206-7.574-8.276z" stroke="#000" stroke-width=".265" transform="matrix(.29228 0 0 .3306 290.534 -100.617)" id="path217"/><path d="M-637.24 500.007c.514 3.09 1.161 7.255-.702 10.15.214-3.33 1.074-6.553.156-10.072zm18.878-1.665c-.436 2.97-1.029 6.795.703 10.15-.214-3.33-1.073-6.553-.156-10.072z" stroke="#000" stroke-width=".265" transform="matrix(.29228 0 0 .3306 290.534 -100.617)" id="path219"/><path d="M-630.624 484.07c2.103 1.015 3.735.46 5.411.055l.055-5.797c-1.57.911-3.422 1.262-5.576 0 .033 1.753-.04 4.607.11 5.742z" fill="#c83737" stroke="#000" stroke-width=".265" transform="matrix(.29228 0 0 .3306 290.534 -100.617)" id="path221"/><path d="M-631.524 477.684c-.035-1.698-.113-3.063 2.102-4.059 6.572-.974 4.786 6.02 4.099 4.592-3.603 1.876-4.99.265-6.201-.533z" stroke="#000" stroke-width=".265" transform="matrix(.29228 0 0 .3306 290.534 -100.617)" id="path223"/><path d="M-629.722 480.32c-.142.159-.393.147-.543.006-.187-.177-.171-.48.005-.659.213-.216.568-.195.776.016.244.248.218.656-.027.893-.283.273-.744.241-1.01-.039-.3-.317-.264-.831.05-1.126.353-.33.92-.288 1.243.061.32.345.323.886.032 1.25" fill="none" stroke="#000" stroke-width=".265" transform="matrix(.29228 0 0 .3306 290.534 -100.617)" id="path225"/><path d="M-627.846 480.507c-.133.185-.4.2-.575.066-.218-.168-.234-.492-.066-.7.202-.252.582-.268.825-.067.286.236.302.673.068.95-.271.32-.764.337-1.076.068-.354-.305-.371-.854-.069-1.2.34-.389.945-.406 1.326-.07.376.332.439.906.168 1.323" fill="none" stroke="#000" stroke-width=".265" transform="matrix(.29228 0 0 .3306 290.534 -100.617)" id="path227"/><path transform="matrix(.26439 0 0 .32593 273.09 -98.37)" d="M-626.284 480.303c-.184.143-.45.08-.583-.1-.166-.228-.089-.55.136-.706.27-.19.647-.096.828.17.213.315.104.747-.206.952-.357.237-.845.112-1.075-.241-.26-.4-.119-.944.277-1.198.444-.284 1.043-.127 1.32.312a1.052 1.052 0 0 1-.213 1.346" fill="none" stroke="#000" stroke-width=".265" id="path229"/><path d="M-629.828 483.73c-.15.169-.415.156-.573.006-.197-.188-.18-.507.007-.696.225-.227.6-.203.819.02.257.262.228.692-.031.941-.3.288-.786.253-1.066-.043-.317-.336-.277-.879.056-1.189.374-.347.972-.301 1.312.069.336.365.338.936.03 1.318" fill="none" stroke="#000" stroke-width=".265" transform="matrix(.29228 0 0 .3306 290.534 -100.617)" id="path231"/><path d="M-628.015 483.863c-.134.176-.394.185-.56.05-.208-.167-.216-.481-.049-.68.202-.24.57-.247.803-.047.272.236.278.66.044.924-.27.305-.748.31-1.045.043-.337-.304-.341-.837-.04-1.167.337-.37.925-.373 1.288-.038a1 1 0 0 1 .134 1.286" fill="none" stroke="#000" stroke-width=".265" transform="matrix(.29228 0 0 .3306 290.534 -100.617)" id="path233"/><path transform="matrix(.22496 0 0 .2834 248.584 -77.747)" d="M-626.897 483.697c-.141.243-.469.294-.699.15-.289-.18-.347-.576-.166-.853.218-.334.683-.4 1.006-.182.38.256.454.79.199 1.16-.294.427-.898.507-1.315.215-.472-.332-.56-1.005-.23-1.468.37-.52 1.113-.614 1.622-.247.484.349.641 1.012.395 1.55" fill="none" stroke="#000" stroke-width=".265" id="path235"/><path d="M106.209 58.346c.544.213 1.181.2 1.54.013l.037.5c-.506.131-1.06.059-1.566-.048z" opacity=".977" fill="#501616" fill-rule="evenodd" id="path237"/></g><path d="M-20.791-2.543c.173-.018.119.867.315 1.887.107 1.212.025 1.305.025 1.305" stroke="#000" stroke-width=".087" id="path241"/><path d="M-34.566 10.983l.18-.928c2.843-1.512 2.92.52 4.38.695l-.498 1.161c-1.406.04-3.164-.478-4.062-.928z" fill="#501616" id="path243"/><path d="M-14.535 10.82l.271-.234.05.365.034-.367.281.22-.223-.285.348-.052-.35-.035.211-.296-.271.235-.05-.366-.035.367-.28-.22.222.285-.347.052.35.035z" opacity=".955" fill="#fff" fill-rule="evenodd" stroke="#fff" stroke-width=".087" id="path245"/><path d="M-25.644-13.959c.443.366.887.539 1.46.768.449-.214.977-.449 1.11-.821l.15.785-2.77.179c-.06-.32-.106-.637.05-.91z" stroke="#000" stroke-width=".08" id="path247"/><path d="M-33.477 10.898l.272-.234.05.365.034-.367.281.22-.223-.285.348-.052-.35-.035.21-.296-.27.235-.051-.366-.034.367-.281-.22.223.285-.347.052.35.035z" opacity=".955" fill="#fff" fill-rule="evenodd" stroke="#fff" stroke-width=".087" id="path249"/><path d="M-33.624 14.625c.565.125.646.057.887.1.337-.18.225-.512.033-.87l-.468-.435" fill="#c87137" id="path725"/></g><g id="door" transform="matrix(6.21196 0 0 3.75884 -36.719 .022)" fill-rule="evenodd" stroke="#500"><path id="rect4717-7" fill="#d38d5f" stroke-width=".09" d="M15.301 11.634h1.367v5.845h-1.367z"/><path id="rect4717-7-3" fill="#ffd5d5" stroke-width=".069" d="M15.524 12.026h.945v4.999h-.945z"/></g></g></g><g id="sign6" transform="matrix(4.03098 0 0 3.716 -86.269 19.896)"><path id="rect988" opacity=".987" fill="#1a1a1a" fill-rule="evenodd" stroke="#542403" stroke-width=".682" d="M21.73-4.969h3.532v7.433H21.73z"/><text style="line-height:1.25" x="26.244" y="-1.788" id="text998" transform="scale(.83702 1.19472)" font-size="1.982" font-family="sans-serif" fill="#b3b3b3" stroke-width=".165"><tspan id="tspan996" x="26.244" y="-1.788">Not</tspan></text><text style="line-height:1.25" x="35.563" y=".689" id="text998-0" transform="scale(.61885 1.61589)" font-size="1.978" font-family="sans-serif" fill="#b3b3b3" stroke-width=".165"><tspan id="tspan996-3" x="35.563" y=".689">Here</tspan></text></g></svg>