<svg xmlns="http://www.w3.org/2000/svg" width="100" height="100" viewBox="0 0 26.458 26.458" id="svg104"><path d="M26.485 4.854l-.073 21.577-26.404.05L13.391 4.523l13.094.33z" fill="#8a0" id="path2"/><path d="M14.65.05L26.507.024V4.76c-2.532 1.613-5.684 1.276-8.46.613-1.675-.36-3.356-.778-5.077-.805L14.65.05z" fill="#ac9d93" id="path4"/><path d="M2.125.003L.031.01C.025 1.427-.015 2.844.043 4.26.94 2.956 1.878 1.605 2.126.004z" fill="#5aa02c" id="path6"/><path d="M2.143.037l12.54.004C12.476 8.217 7.445 15.165 2.821 22.113c-.952 1.44-1.888 2.891-2.78 4.369L.026 4.278C.57 2.79 1.37 1.414 2.143.038z" fill="#2ad4ff" id="path8"/><path d="M2.807 11.836c1.06-.557 1.034-2.245 1.326-2.991.217 1.122.35 3.21-1.19 3.358-.49.15-.618-.074-.135-.365" fill="#d5ffd5" fill-rule="evenodd" id="path10"/><path d="M10.686 11.955c-.433-1.98-.057-3.993.164-5.965-.17 1.475-.693 3.277-2.285 4.02 1.246-1.847.466-4.138 1.418-6.044 2.16-.64 2.119 2.18 1.846 3.316-.25 1.581-.716 3.124-1.143 4.673z" fill="green" id="path12"/><path d="M14.29 11.342c.216-1.802-.637-3.582-.572-5.39.287 1.453 1.332 3.004 3.126 3.453-1.268-1.376-1.61-3.183-2.496-4.739-1.148-1.328-3.523.152-2.463 1.522.604 1.773 2.026 3.328 2.404 5.154z" fill="green" id="path16"/><path d="M10.202 14.585c1.238.134 1.76-.36 1.486-1.386-.033-1.512-.356-3.01-.522-4.515.787-1.234.68-2.862 1.78-3.92-1.368.18-1.666 1.989-1.995 2.32-.974-.713-1.362-2.632-2.949-2.302-.512.214-1.497 1.361-.325.686 1.503-.748 2.483 1.6 2.06 2.08C8.926 7.553 7.502 8.928 7.828 9c.664-.6 2.366-1.333 2.089.13.112 1.72-.475 3.47.089 5.167l.086.149z" fill="#502d16" id="path22"/><g id="tree-six"><path d="M11.018 6.61c.742-1.193.777-2.595.949-3.912-.407.837.617 3.042 1.19 2.728-.603-1.294.466-2.63-.066-3.923-1.857-.88-2.115 1.572-1.968 2.602.011.836.066 1.68-.105 2.505zm4.459 1.07c-.382-1.727-.05-3.484.144-5.204.014 1.186-.965 3.237-1.93 3.377.993-1.591.337-3.526 1.166-5.142 1.902-.558 1.866 1.901 1.627 2.892-.22 1.38-.631 2.726-1.007 4.077z" fill="green" id="path24"/><path d="M18.65 7.145c.19-1.572-.561-3.125-.503-4.702.251 1.268 1.172 2.62 2.751 3.012-1.18-1.236-1.394-2.914-2.32-4.272-1.315-.987-2.92.518-1.98 1.647.563 1.472 1.731 2.784 2.051 4.315z" fill="green" id="path28"/><path d="M14.912 7.148c.928-1.44.994-3.15 1.22-4.753.04-.79.16.943.372 1.222.138.66 1.19 2.353 1.296 2.158-.656-1.592.45-3.18.137-4.77-.742-1.269-3.39-.834-3.322.646-.382 1.817.144 3.672.296 5.497z" fill="#5aa02c" id="path30"/></g><path d="M12 7.9c.663-.764.775-2.725.815-3.057-.109.816.344 1.948 1.228 2.257-.67-1.1.305-2.258-.145-3.374-1.322-.764-2.001.835-1.825 1.7-.025.824.108 1.662-.073 2.474z" fill="green" id="path32"/><path d="M15.05 9.974c1.962.343 1.191-1.484 1.215-2.471.013-1.02-.619-2.13-.136-3.08.089-.876 1.196-2.742 1.09-2.932-1.052.226-1.207 1.729-1.51 1.94-.857-.623-1.198-2.296-2.595-2.009-.656.354-1.236 1.155-.07.54 1.246-.421 2.497 2.027 1.108 2.022-.722.223-2.03 1.787-.619.785 1.816-1.2 1.2 1.541 1.192 2.357-.018.928-.278 1.997.325 2.848z" fill="#502d16" id="path34"/><path d="M12.143 7.035c.93-1.44.995-3.149 1.22-4.752.05-.769-.109 1.012.087 1.332.193.846.739 1.772 1.648 2.208-.747-1.663-.14-3.411.006-5.091-.691-1.415-3.159-.151-3.019 1.098-.377 1.71-.08 3.476.058 5.205z" fill="#4a0" id="path26"/><g id="g48"><path d="M22.841 10.259c-1.603.344-.973-1.484-.993-2.47-.01-1.021.506-2.131.111-3.08-.072-.877-.978-2.742-.89-2.932.86.226.986 1.728 1.233 1.938.701-.622.98-2.295 2.123-2.008.536.354 1.01 1.155.058.54-1.109-.355-2.116 2.165-.722 2.128.54.339 1.393 1.611.32.679-1.483-1.2-.98 1.541-.974 2.358.023.935.216 1.985-.266 2.847z" fill="#502d16" id="path46"/><g id="tree-seven"><path d="M26.138 6.895c-.598-.973-.705-3.257-.756-3.718.086.97-.185 2.232-1.045 2.745.587-1.358-.324-2.77.107-4.133 1.518-.88 1.728 1.571 1.608 2.601-.009.836-.054 1.68.086 2.505zm-3.646 1.07c.312-1.727.041-3.484-.117-5.204-.012 1.186.789 3.238 1.578 3.377-.812-1.59-.276-3.526-.954-5.142-1.555-.558-1.525 1.902-1.33 2.892.18 1.38.516 2.726.824 4.077z" fill="green" id="path36"/><path d="M25.218 7.32c-.798-1.546-.845-3.374-1.02-5.091.173 1.375-.16 3.09-1.396 3.879.662-1.716.021-3.516.026-5.247.907-1.232 2.573.213 2.477 1.457.241 1.653.027 3.34-.087 5.003z" fill="#4a0" id="path38"/><path d="M19.899 7.43c-.182-1.356.555-3.84.37-4.49-.232 1.178-1.03 2.505-2.22 2.773 1.019-1.226 1.135-2.898 1.908-4.245 1.075-.987 2.387.518 1.62 1.647-.462 1.472-1.416 2.784-1.678 4.315z" fill="green" id="path40"/><path d="M22.955 7.433c-.798-1.546-.845-3.374-1.02-5.091.016 1.204-.925 3.5-1.342 3.718.536-1.592-.368-3.18-.112-4.77.607-1.268 2.772-.834 2.716.646.312 1.817-.117 3.672-.242 5.497z" fill="#5aa02c" id="path42"/></g><path d="M25.336 8.185c-.543-.764-.634-2.725-.667-3.056.275.666-.673 2.489-.947 2.077.5-1.067-.457-2.309.18-3.296 1.822-.435 1.312 2.29 1.356 3.414.002.29.019.58.078.861z" fill="green" id="path44"/></g><g id="g74"><path d="M10.434 18.407c.788-1.2.82-2.657.983-4.012-.207 1.074.305 2.59 1.417 3.017-.78-1.366.354-2.81-.17-4.197-1.553-.95-2.35 1.04-2.144 2.115-.03 1.024.127 2.067-.086 3.077z" fill="#2ca02c" id="path70"/><path d="M13.969 20.866c.955.063 1.931.126 1.587-.991.019-1.772-.356-3.529-.54-5.292.846-1.328.625-3.076 1.87-4.225-1.25.273-1.896 1.551-1.93 2.636-1.109-.786-1.388-2.647-2.982-2.73-.615.085-1.862 1.613-.567.83 1.555-.812 2.567 1.737 2.13 2.256-.839.007-2.31 1.5-1.974 1.577.686-.651 2.447-1.447 2.16.141a15.049 15.049 0 0 1-.175 3.58c-.065.741-.123 1.575.421 2.218z" fill="#502d16" id="path72"/><g id="g174"><path d="M18.245 17.468c.224-1.956-.658-3.887-.59-5.85.295 1.578 1.377 3.26 3.232 3.748-1.213-1.389-1.625-3.196-2.4-4.796-.496-1.66-3.681-.77-2.85.847.498 2.119 2.191 3.915 2.608 6.05z" fill="green" id="path66"/><path d="M13.854 17.472c1.006-1.595 1.098-3.497 1.372-5.28.068-.598.079-1.475.184-.402.259 1.515.89 3.007 1.951 4.253-.912-1.959.238-3.966.122-5.947-.216-1.237-2.425-1.595-3.317-.767-.995 1.1-.815 2.652-.782 3.99.107 1.388.343 2.767.47 4.153z" fill="#5aa02c" id="path68"/><path d="M9.28 16.802c.872-1.483.914-3.227 1.115-4.866-.193 1.276.159 2.961 1.474 3.656-.843-1.685.464-3.448-.154-5.142-1.222-.895-2.372.56-2.246 1.589-.186 1.581.115 3.192-.188 4.763zm5.239 1.331c-.448-2.148-.059-4.333.17-6.473-.186 1.625-.69 3.474-2.355 4.387 1.187-1.963.584-4.335 1.337-6.411 1.297-1.147 2.396.965 2.138 2.02-.048 2.208-.756 4.343-1.29 6.477z" fill="green" id="path62"/></g><path d="M10.603 17.332c1.006-1.595 1.097-3.497 1.372-5.281.065-.519.118-1.504.043-.465-.088 1.558.474 3.303 2.018 4.252-.544-1.474-.426-3.157-.163-4.699.31-1.01.454-2.726-1.345-2.394-1.92.248-2.1 2.29-2.19 3.656-.076 1.644.13 3.288.265 4.93z" fill="green" id="path64"/></g><g id="g86"><path d="M16.01 23.823c.789-1.2.82-2.657.983-4.012-.206 1.074.306 2.59 1.418 3.017-.78-1.366.353-2.81-.17-4.197-1.553-.95-2.351 1.04-2.145 2.115-.03 1.024.127 2.067-.085 3.077z" fill="green" id="path82"/><path d="M19.594 26.403c.94.106 1.683.013 1.403-.999.05-1.804-.217-3.606-.405-5.405.847-1.328.626-3.075 1.871-4.225-1.25.273-1.896 1.552-1.931 2.636-1.108-.786-1.388-2.647-2.982-2.729-.615.084-1.862 1.612-.566.83 1.554-.813 2.567 1.736 2.13 2.255-.84.007-2.312 1.5-1.975 1.577.687-.651 2.447-1.446 2.16.142.122 1.866-.494 3.765.093 5.606l.089.162z" fill="#502d16" id="path84"/></g><g id="dog7" transform="matrix(-.23321 0 0 .24529 6.612 25.81)"><path id="path1508-3" style="font-variation-settings:normal" d="M-3.797-4.594c-.186.118-.627-.06-.9.05-.56.229-.526-.716-.198-.518.264.159.388.09.644.063" fill="#4d4d4d" fill-rule="evenodd" stroke-width=".959"/><path id="path1508-3-2" style="font-variation-settings:normal" d="M-10.13-4.756c-.186.118-.627-.06-.9.05-.56.23-.526-.716-.198-.518.264.16.388.091.644.063" fill="#4d4d4d" fill-rule="evenodd" stroke-width=".959"/><path id="rect1405-1" d="M-10.881-8.043h.75v3.296h-.75c.488-.75.054-2.158 0-3.296z" fill="#666" fill-rule="evenodd" stroke-width=".147"/><path id="path1387" style="font-variation-settings:normal" d="M-11.484-15.411c1.408.6 2.403 2.007 1.46 2.901-.944.895-3.242 1.2-4.65.6-1.408-.6-1.9-1.234-.711-1.76 1.199-.529 2.872-1.874 3.93-1.775" fill="#b3b3b3" fill-rule="evenodd"/><path id="rect1405-6" d="M-4.565-7.372l.797-.508v3.296h-.75c.59-.846-.046-1.689-.047-2.788z" fill="#666" fill-rule="evenodd" stroke-width=".147"/><path id="path1387-1" style="font-variation-settings:normal" d="M-4.135-10.924c2.244.535.511 3.46-.098 3.684-1.903.7-10.755 2.472-8.296-4.36 0 0 2.563-1.17 2.031-.78-.315.232 4.016 1.854 5.407 1.487" fill="#b3b3b3" fill-rule="evenodd" stroke-width=".956"/><path id="rect1405" d="M-11.583-7.635h.75v3.296h-1.076c.72-.273.55-1.908.326-3.296z" fill="#b3b3b3" fill-rule="evenodd" stroke-width=".147"/><path id="rect1405-8" d="M-5.49-6.963l1.004-.623v3.295l-1.142-.032c1.382-.781.185-2.084.137-2.64z" fill="#b3b3b3" fill-rule="evenodd" stroke-width=".147"/><path id="rect1405-8-6" d="M-1.463-11.126c-.373.877-1.073 1.32-1.69 1.872l-.278-.697c.735-.03.953-1.242 1.968-1.175z" fill="#b3b3b3" fill-rule="evenodd" stroke-width=".147"/><path id="path1387-5" style="font-variation-settings:normal" d="M-15.347-13.586c.2.295.216.785-.083.959-.3.174-.79.06-.99-.234-.2-.295-.216-.52.084-.567.303-.047.803-.286.999-.165" fill="#333" fill-rule="evenodd" stroke-width=".26"/><path style="font-variation-settings:normal" id="path1469" d="M-13.446-14.733a.228.277 0 0 1 .063.385.228.277 0 0 1-.317.075.228.277 0 0 1-.063-.384.228.277 0 0 1 .317-.076" fill-rule="evenodd" stroke-width="1.55"/><path style="font-variation-settings:normal" id="path1469-3" d="M-12.989-13.836a.228.277 0 0 1 .062.385.228.277 0 0 1-.316.076.228.277 0 0 1-.063-.385.228.277 0 0 1 .317-.076" fill-rule="evenodd" stroke-width="1.55"/><path d="M-11.723-15.365l1.263.699c.126-.419.312-.8.014-1.475-.019-.163-1.076.07-1.277.776z" id="path1486" fill="#1a1a1a" stroke-width=".705"/><path d="M-11.634-14.788l.78 1.214c.309-.309.654-.556.712-1.29.061-.154-.98-.451-1.492.076z" id="path1486-1" fill="#333" stroke-width=".705"/><path id="rect1503" d="M-12.669-11.616c.818-.16 1.67-.255 2.372-.646l.323.245c-.786.437-1.71.701-2.741.83z" fill="#803300" fill-rule="evenodd" stroke-width=".147"/><path d="M-14.976-12.072c.592-.105.852-.342 1.011-.62" id="path1506" fill="none" stroke="#000" stroke-width=".3" stroke-linecap="round"/><path id="path1508" style="font-variation-settings:normal" d="M-10.848-4.334c-.186.118-.627-.06-.899.051-.56.228-.526-.717-.199-.519.265.16.389.092.644.063" fill="#b3b3b3" fill-rule="evenodd" stroke-width=".959"/><path id="path1508-1" style="font-variation-settings:normal" d="M-4.535-4.271c-.177.118-.595-.06-.853.05-.531.229-.499-.716-.188-.518.25.159.368.09.61.063" fill="#b3b3b3" fill-rule="evenodd" stroke-width=".934"/></g><path d="M2.139 24.038c.856-1.29.847-2.848.991-4.3-.202 1.151.424 2.77 1.695 3.219-.923-1.456.316-3.01-.319-4.49-1.786-1.005-2.63 1.129-2.363 2.278-.011 1.096.211 2.211-.004 3.293z" fill="green" id="path98"/><path d="M6.005 26.482c1.097 0 2.5.239 2.02-1.067-.04-1.845-.564-3.665-.816-5.5.922-1.426.61-3.295 1.99-4.533-1.276.252-1.985 1.47-2.085 2.52-.144.668-1.104-.926-1.457-1.27-.626-1.488-2.87-1.737-3.368-.116 1.282-1.006 3.021-.15 3.155 1.193 1.06 1.169-.968.876-1.527 1.71-.438.492-1.361 1.391-.1.61.646-.85 2.293-.867 1.943.415.11 1.2.145 2.404-.06 3.594-.043.802-.253 1.707.305 2.445z" fill="#502d16" id="path100"/><g id="tree-one"><path d="M.785 22.329c.93-1.597.953-3.454 1.115-5.214-.302 1.26.511 3.526 1.752 3.789-.979-1.756.465-3.62-.303-5.388-1.41-.949-2.668.615-2.494 1.715-.165 1.694.226 3.415-.07 5.098zm5.969 1.388c-.556-2.16-.211-4.366-.05-6.525.107-.884-.091.95-.25 1.302-.315 1.146-1.01 2.44-2.247 2.98 1.326-2.1.525-4.626 1.332-6.843 1.298-1.221 2.734.894 2.472 1.996.061 2.414-.712 4.757-1.257 7.09z" fill="green" id="path88"/><path d="M7.337 23.057c.593-1.782.28-3.714.162-5.559-.041-.59-.317-1.929.062-.678.583 1.538 1.517 2.984 2.806 4.091-1.306-1.882-.651-4.195-1.203-6.248-.414-1.147-2.191-1.152-3.043-.53-1.016 1.017-.587 2.583-.367 3.838.41 1.724 1.075 3.386 1.583 5.086z" fill="#0a0" id="path96" stroke-width=".927"/></g><path d="M2.297 22.887c1.06-1.643 1.113-3.6 1.374-5.435.063-.511.119-1.964.055-.723-.054 1.667.638 3.532 2.413 4.536-.382-1.009-.605-2.21-.5-3.31.015-1.236.416-2.46.303-3.69-.639-.973-2.581-.665-3.222.138-1.246 1.804-.848 4.036-.716 6.056.09.81.203 1.618.293 2.428z" fill="#338000" id="path90"/><g id="sign7" transform="matrix(1.06666 0 0 .97591 -22.76 5.122)"><path id="rect988" opacity=".987" fill="#1a1a1a" fill-rule="evenodd" stroke="#542403" stroke-width=".682" d="M21.73-4.969h3.532v7.433H21.73z"/><text style="line-height:1.25" x="26.244" y="-1.788" id="text998" transform="scale(.83702 1.19472)" font-size="1.982" font-family="sans-serif" fill="#b3b3b3" stroke-width=".165"><tspan id="tspan996" x="26.244" y="-1.788">Not</tspan></text><text style="line-height:1.25" x="35.563" y=".689" id="text998-0" transform="scale(.61885 1.61589)" font-size="1.978" font-family="sans-serif" fill="#b3b3b3" stroke-width=".165"><tspan id="tspan996-3" x="35.563" y=".689">Here</tspan></text></g><g id="g180"><path d="M10.044 11.346c1-1.53 1.084-3.352 1.347-5.06.064-1.646.184.592.512 1.158.33.922 1.297 1.446 1.991 2.224-.882-1.806-.228-3.293-.341-5.12-.392-1.565-3.65-1.437-3.773.21-.576 2.16.095 4.407.264 6.588z" fill="#5aa02c" id="path18"/><path d="M6.9 11.217c1-1.53 1.084-3.352 1.347-5.06.057-.475.089-1.126.021-.236-.084 1.426.467 3.118 1.988 3.905-.849-1.906-.159-3.91.006-5.836-.784-1.622-3.587-.173-3.428 1.259-.429 1.962-.092 3.985.066 5.968z" fill="#4a0" id="path14"/><path d="M7.13 11.748c.58-.882.603-1.952.722-2.947-.152.789.225 1.902 1.041 2.216-.572-1.004.26-2.064-.125-3.083-1.14-.697-1.726.764-1.574 1.554-.022.752.093 1.518-.063 2.26z" fill="green" id="path20" stroke-width=".778"/><path d="M6.492 9.273c.762-1.106.792-2.449.95-3.698-.2.99.295 2.387 1.37 2.78-.753-1.258.342-2.59-.164-3.867-1.502-.876-2.273.958-2.073 1.949-.029.944.122 1.905-.083 2.836z" fill="#338000" id="path20-8"/></g><g id="tree-five"><g id="g60"><path d="M17.384 12.427c.663-.764.775-2.725.815-3.057-.108.816.344 1.948 1.228 2.257-.669-1.1.305-2.258-.144-3.374-1.323-.764-2.002.835-1.826 1.7-.025.824.108 1.662-.073 2.474z" fill="green" id="path56"/><path d="M20.435 14.5c1.961.344 1.19-1.483 1.215-2.47.013-1.02-.62-2.13-.136-3.08.088-.876 1.196-2.742 1.09-2.932-1.052.227-1.208 1.729-1.51 1.94-.858-.623-1.199-2.296-2.596-2.009-.656.354-1.235 1.155-.07.54 1.246-.421 2.497 2.027 1.108 2.022-.721.223-2.03 1.787-.619.785 1.816-1.2 1.2 1.541 1.192 2.357-.018.928-.278 1.997.326 2.848z" fill="#502d16" id="path58"/><g id="tree-four"><path d="M16.402 11.137c.742-1.193.777-2.595.95-3.912-.408.837.616 3.042 1.19 2.728-.603-1.294.465-2.63-.067-3.922-1.857-.88-2.114 1.57-1.967 2.6.01.837.065 1.681-.106 2.506zm4.46 1.07c-.382-1.727-.05-3.484.144-5.204.014 1.186-.965 3.237-1.93 3.377.993-1.591.336-3.527 1.166-5.142 1.902-.558 1.865 1.901 1.626 2.892-.22 1.38-.63 2.726-1.007 4.077z" fill="green" id="path50"/><path d="M20.296 11.675c.929-1.44.994-3.15 1.22-4.753.04-.79.16.943.372 1.222.138.66 1.19 2.353 1.296 2.158-.655-1.592.45-3.18.137-4.77-.742-1.269-3.39-.834-3.321.646-.382 1.817.143 3.672.296 5.497z" fill="#5aa02c" id="path54"/></g><path d="M17.528 11.563c.929-1.441.994-3.15 1.22-4.754.05-.768-.11 1.013.087 1.333.192.846.738 1.772 1.648 2.208-.747-1.663-.14-3.411.005-5.091-.69-1.415-3.158-.151-3.018 1.098-.377 1.71-.08 3.476.058 5.205z" fill="#4a0" id="path52"/></g><path d="M24.51 11.473c-.784-1.454-.815-3.218-.977-4.86.206 1.301-.304 3.137-1.41 3.655.776-1.655-.35-3.404.17-5.084 1.544-1.15 2.338 1.26 2.132 2.562.03 1.24-.126 2.504.085 3.727z" fill="green" id="path20-87" stroke-width="1.163"/></g><g id="g167"><path d="M14.857 22.218c.872-1.483.913-3.227 1.115-4.866-.194 1.276.158 2.962 1.473 3.656-.843-1.685.465-3.447-.153-5.142-1.223-.895-2.373.56-2.246 1.589-.186 1.582.114 3.192-.189 4.763zm5.238 1.331c-.448-2.148-.059-4.333.17-6.473-.186 1.625-.689 3.474-2.354 4.387 1.187-1.963.583-4.335 1.337-6.411 1.296-1.147 2.395.965 2.137 2.02-.047 2.208-.756 4.344-1.29 6.477z" fill="green" id="path76"/><path d="M19.43 22.888c1.007-1.595 1.098-3.497 1.372-5.28.069-.598.08-1.475.184-.402.26 1.515.89 3.007 1.952 4.253-.912-1.958.238-3.966.121-5.947-.216-1.237-2.424-1.595-3.316-.767-.996 1.1-.816 2.652-.782 3.991.107 1.387.342 2.766.47 4.152z" fill="#5aa02c" id="path80"/><path d="M16.18 22.748c1.006-1.595 1.097-3.497 1.371-5.281.066-.519.119-1.504.044-.465-.089 1.558.473 3.303 2.018 4.253-.545-1.475-.427-3.158-.163-4.7.31-1.01.454-2.725-1.345-2.394-1.921.249-2.1 2.29-2.19 3.656-.077 1.644.129 3.288.265 4.93z" fill="#4a0" id="path78"/><path d="M23.13 21.555c-.783-1.453-.814-3.218-.976-4.86.205 1.301-.304 3.138-1.41 3.655.775-1.655-.351-3.404.17-5.084 1.544-1.15 2.337 1.26 2.131 2.562.03 1.24-.125 2.504.086 3.727z" fill="green" id="path20-87-4" stroke-width="1.163"/></g></svg>