<?xml version="1.0" encoding="UTF-8" standalone="no"?>
<svg
   xmlns:dc="http://purl.org/dc/elements/1.1/"
   xmlns:cc="http://creativecommons.org/ns#"
   xmlns:rdf="http://www.w3.org/1999/02/22-rdf-syntax-ns#"
   xmlns:svg="http://www.w3.org/2000/svg"
   xmlns="http://www.w3.org/2000/svg"
   xmlns:sodipodi="http://sodipodi.sourceforge.net/DTD/sodipodi-0.dtd"
   xmlns:inkscape="http://www.inkscape.org/namespaces/inkscape"
   width="100"
   height="100"
   viewBox="0 0 26.458 26.458"
   id="svg164"
   version="1.1"
   sodipodi:docname="omg9 - Copy.svg"
   inkscape:version="1.0.1 (3bc2e813f5, 2020-09-07)">
  <metadata
     id="metadata147">
    <rdf:RDF>
      <cc:Work
         rdf:about="">
        <dc:format>image/svg+xml</dc:format>
        <dc:type
           rdf:resource="http://purl.org/dc/dcmitype/StillImage" />
      </cc:Work>
    </rdf:RDF>
  </metadata>
  <defs
     id="defs145" />
  <sodipodi:namedview
     pagecolor="#ffffff"
     bordercolor="#666666"
     borderopacity="1"
     objecttolerance="10"
     gridtolerance="10"
     guidetolerance="10"
     inkscape:pageopacity="0"
     inkscape:pageshadow="2"
     inkscape:window-width="1920"
     inkscape:window-height="1017"
     id="namedview143"
     showgrid="false"
     inkscape:zoom="8.2752874"
     inkscape:cx="50"
     inkscape:cy="59.667338"
     inkscape:window-x="-8"
     inkscape:window-y="-8"
     inkscape:window-maximized="1"
     inkscape:current-layer="svg164" />
  <path
     d="M.05 7.822L.087.072 26.406.036c-.01 1.545.045 8.28.049 9.002-1.093.625-1.973 1.571-3.283 1.87z"
     fill="#ac9d93"
     stroke="#ac9d93"
     stroke-width=".088"
     id="path2" />
  <path
     d="M23.146 10.857C13.796 8.714.011 7.864.015 7.851c0 0-.024 18.046.012 18.62l23.318.06z"
     fill="#0ff"
     id="path4" />
  <path
     d="M20.508.057l-2.729.005c1.19 3.5 3.996 8.682 6.394 10.388l2.26-1.277c-1.765-2.31-5.568-5.751-5.925-9.116z"
     fill="#0b2817"
     stroke="#0b2817"
     stroke-width=".088"
     id="path6" />
  <path
     d="M6.441 26.473C2.314 9.803 19.504 14.563 26.488 9.056l-.007 17.434z"
     fill="#a0892c"
     id="path8" />
  <g
     id="pavilion">
    <path
       d="M15.593 12.313l.039.449-2.685 2.884-.019-.727zm6.973 2.616l.086.818-2.62-2.682.012-.499z"
       fill="#a05a2c"
       id="path10"
       stroke-width="1.127" />
    <path
       d="M17.671 3.812c.552 1.946 5.141 4.304 8.892 5.274-.986.346-2.918.294-1.412-.48-2.85 1.517-8.451-2.045-7.48-4.794z"
       fill="#483e37"
       id="path12"
       stroke-width="1.127" />
    <g
       transform="matrix(.3108 0 0 .33622 -20.187 -.402)"
       id="g42">
      <path
         d="M115.094 42.492l-10.077 10.199 8.134 10.562 20.154.121 5.706-11.412-9.591-9.712z"
         fill="#c8beb7"
         id="path14" />
      <path
         d="M114.974 26.016h1.76V42.65c-.531.44-1.146.214-1.76 0zm-10.104 3.257h1.76v23.626c-.512.893-1.08 1.13-1.76 0zm8.193 1.501h1.76v32.144c-.485 1.178-1.109.75-1.76 0zm14.684-5.185h1.76v16.633c-.383.559-1.044.356-1.76 0zm9.831 4.301h1.76v22.472c-.522.524-1.071.823-1.76 0zm-5.924.538h1.76v32.757c-.493.83-1.1.655-1.76 0z"
         opacity=".987"
         fill="#520"
         fill-rule="evenodd"
         id="path16" />
      <path
         opacity=".987"
         fill="#520"
         fill-rule="evenodd"
         d="M105.272 35.56l9.05-8.798 1.34 1.397-9.05 8.798zm11.19-5.088l12.622.016-.015 1.935-12.621-.015z"
         id="path18" />
      <path
         d="M106.575 34.846l6.624 4.005.207 2.732c-1.448-1.05-5.076-3.05-7.418-4.67z"
         opacity=".987"
         fill="#520"
         fill-rule="evenodd"
         id="path20" />
      <rect
         width="12.312"
         height="1.888"
         x="111.599"
         y="-70.936"
         transform="matrix(.7277 .6859 -.69133 .72254 0 0)"
         ry="0"
         opacity=".987"
         fill="#520"
         fill-rule="evenodd"
         id="rect22" />
      <path
         d="M132.63 38.19l5.249-4.881 1.384 1.493-6.393 5.836z"
         opacity=".987"
         fill="#520"
         fill-rule="evenodd"
         id="path24" />
      <path
         d="M120.944 12.823c-1.774 6.592-23.26 13.715-28.61 15.686 3.143 1.035 8.94-.107 4.813-1.693 10.258 4.376 26.694-7.218 23.797-13.993z"
         fill="#483e37"
         id="path26" />
      <path
         d="M121.3 12.745c-1.649 6.892-11.177 17.74-25.311 13.815 9.376 5.994 40.653 7.812 50.267.089-11.846 3.811-21.63-5.098-24.956-13.904z"
         fill="#6c5d53"
         id="path28" />
      <path
         d="M121.936 10.521a.98 1.604 0 0 1 .268 2.226.98 1.604 0 0 1-1.36.44.98 1.604 0 0 1-.27-2.226.98 1.604 0 0 1 1.36-.44"
         opacity=".987"
         fill="#483e37"
         fill-rule="evenodd"
         id="path30" />
      <path
         d="M130.29 63.172l.928 3.682-15.504.334.806-3.934z"
         opacity=".987"
         fill="#484537"
         fill-rule="evenodd"
         id="path32" />
      <path
         d="M131.298 67.206l.96 4.095-17.489.424.68-4.158z"
         opacity=".987"
         fill="#6c6753"
         fill-rule="evenodd"
         id="path34" />
      <path
         d="M132.119 71.491l1.021 3.79-19.16.54.775-3.789z"
         opacity=".987"
         fill="#484537"
         fill-rule="evenodd"
         id="path36" />
      <path
         d="M133.19 75.619l1.463 4.132-21.429.01.743-3.534z"
         opacity=".987"
         fill="#6c6753"
         fill-rule="evenodd"
         id="path38" />
      <path
         d="M114.846 63.011l1.73.096-3.284 16.563-1.824.03zm15.395.13l1.59-.222 4.226 16.81-2 .033z"
         opacity=".987"
         fill="#918a6f"
         fill-rule="evenodd"
         id="path40" />
    </g>
    <path
       d="M15.54 20.886c-.14.361-.145 1.36-.504.673l-2.46-3.082c.028-.388-.113-1.244.284-.615l2.68 3.024zm5.479.89c-.171-.468-.244-.992.112-1.373l1.79-3.101c.07.417.2.869-.099 1.21z"
       fill="#ac9d93"
       id="path44"
       stroke-width="1.127" />
    <path
       d="M14.99 17.573c.074.243.053.486-.041.73l-2.32-2.174c-.084-.404-.025-.546.013-.727zm4.622-5.172c.16.143.079.287-.01.431l-3.526.022-.003-.428zm2.986 2.581c.183.25.215.499.102.748l-1.43 2.902c-.026-.298-.115-.462-.018-.85z"
       fill="#a05a2c"
       id="path46"
       stroke-width="1.127" />
    <g
       id="dog9"
       transform="matrix(-.19732 0 0 .19328 16.805 15.85)">
      <path
         id="path1508-3"
         style="font-variation-settings:normal"
         d="M-3.797-4.594c-.186.118-.627-.06-.9.05-.56.229-.526-.716-.198-.518.264.159.388.09.644.063"
         fill="#4d4d4d"
         fill-rule="evenodd"
         stroke-width=".959" />
      <path
         id="path1508-3-2"
         style="font-variation-settings:normal"
         d="M-10.13-4.756c-.186.118-.627-.06-.9.05-.56.23-.526-.716-.198-.518.264.16.388.091.644.063"
         fill="#4d4d4d"
         fill-rule="evenodd"
         stroke-width=".959" />
      <path
         id="rect1405-1"
         d="M-10.881-8.043h.75v3.296h-.75c.488-.75.054-2.158 0-3.296z"
         fill="#666"
         fill-rule="evenodd"
         stroke-width=".147" />
      <path
         id="path1387"
         style="font-variation-settings:normal"
         d="M-11.484-15.411c1.408.6 2.403 2.007 1.46 2.901-.944.895-3.242 1.2-4.65.6-1.408-.6-1.9-1.234-.711-1.76 1.199-.529 2.872-1.874 3.93-1.775"
         fill="#b3b3b3"
         fill-rule="evenodd" />
      <path
         id="rect1405-6"
         d="M-4.565-7.372l.797-.508v3.296h-.75c.59-.846-.046-1.689-.047-2.788z"
         fill="#666"
         fill-rule="evenodd"
         stroke-width=".147" />
      <path
         id="path1387-1"
         style="font-variation-settings:normal"
         d="M-4.135-10.924c2.244.535.511 3.46-.098 3.684-1.903.7-10.755 2.472-8.296-4.36 0 0 2.563-1.17 2.031-.78-.315.232 4.016 1.854 5.407 1.487"
         fill="#b3b3b3"
         fill-rule="evenodd"
         stroke-width=".956" />
      <path
         id="rect1405"
         d="M-11.583-7.635h.75v3.296h-1.076c.72-.273.55-1.908.326-3.296z"
         fill="#b3b3b3"
         fill-rule="evenodd"
         stroke-width=".147" />
      <path
         id="rect1405-8"
         d="M-5.49-6.963l1.004-.623v3.295l-1.142-.032c1.382-.781.185-2.084.137-2.64z"
         fill="#b3b3b3"
         fill-rule="evenodd"
         stroke-width=".147" />
      <path
         id="rect1405-8-6"
         d="M-1.463-11.126c-.373.877-1.073 1.32-1.69 1.872l-.278-.697c.735-.03.953-1.242 1.968-1.175z"
         fill="#b3b3b3"
         fill-rule="evenodd"
         stroke-width=".147" />
      <path
         id="path1387-5"
         style="font-variation-settings:normal"
         d="M-15.347-13.586c.2.295.216.785-.083.959-.3.174-.79.06-.99-.234-.2-.295-.216-.52.084-.567.303-.047.803-.286.999-.165"
         fill="#333"
         fill-rule="evenodd"
         stroke-width=".26" />
      <path
         style="font-variation-settings:normal"
         id="path1469"
         d="M-13.446-14.733a.228.277 0 0 1 .063.385.228.277 0 0 1-.317.075.228.277 0 0 1-.063-.384.228.277 0 0 1 .317-.076"
         fill-rule="evenodd"
         stroke-width="1.55" />
      <path
         style="font-variation-settings:normal"
         id="path1469-3"
         d="M-12.989-13.836a.228.277 0 0 1 .062.385.228.277 0 0 1-.316.076.228.277 0 0 1-.063-.385.228.277 0 0 1 .317-.076"
         fill-rule="evenodd"
         stroke-width="1.55" />
      <path
         d="M-11.723-15.365l1.263.699c.126-.419.312-.8.014-1.475-.019-.163-1.076.07-1.277.776z"
         id="path1486"
         fill="#1a1a1a"
         stroke-width=".705" />
      <path
         d="M-11.634-14.788l.78 1.214c.309-.309.654-.556.712-1.29.061-.154-.98-.451-1.492.076z"
         id="path1486-1"
         fill="#333"
         stroke-width=".705" />
      <path
         id="rect1503"
         d="M-12.669-11.616c.818-.16 1.67-.255 2.372-.646l.323.245c-.786.437-1.71.701-2.741.83z"
         fill="#803300"
         fill-rule="evenodd"
         stroke-width=".147" />
      <path
         d="M-14.976-12.072c.592-.105.852-.342 1.011-.62"
         id="path1506"
         fill="none"
         stroke="#000"
         stroke-width=".3"
         stroke-linecap="round" />
      <path
         id="path1508"
         style="font-variation-settings:normal"
         d="M-10.848-4.334c-.186.118-.627-.06-.899.051-.56.228-.526-.717-.199-.519.265.16.389.092.644.063"
         fill="#b3b3b3"
         fill-rule="evenodd"
         stroke-width=".959" />
      <path
         id="path1508-1"
         style="font-variation-settings:normal"
         d="M-4.535-4.271c-.177.118-.595-.06-.853.05-.531.229-.499-.716-.188-.518.25.159.368.09.61.063"
         fill="#b3b3b3"
         fill-rule="evenodd"
         stroke-width=".934" />
    </g>
    <g
       id="g1105"
       transform="matrix(1.46488 0 0 1.6727 -8.829 -13.025)">
      <path
         d="M17.92 16.925c-.185.265-.064.704.073 1.018.232.198.433.08.592.022.113-.337.272-.718 0-1.055z"
         fill="#6c5d53"
         id="path48" />
      <path
         d="M17.892 16.933c-.185.265-.064.704.074 1.018.231.198.432.08.591.022.113-.337.272-.718 0-1.055z"
         fill="#917c6f"
         id="path50" />
      <path
         d="M16.785 16.59c-.12.163-.042.434.048.627.152.122.283.049.387.014.074-.208.178-.443 0-.65-.063-.052-.298-.15-.435.01z"
         fill="#6c5d53"
         id="path52" />
      <path
         d="M16.769 16.59c-.12.164-.042.434.048.627.152.123.283.05.387.014.074-.207.178-.442 0-.65-.136.121-.271.124-.435.01z"
         fill="#917c6f"
         id="path54" />
      <path
         d="M17.116 16.515a.224.087 0 0 1 .061.12.224.087 0 0 1-.31.024.224.087 0 0 1-.061-.12.224.087 0 0 1 .31-.025"
         opacity=".987"
         fill="#6c5d53"
         fill-rule="evenodd"
         id="path56" />
      <path
         d="M19.362 16.446c-.115.155-.04.41.046.593.145.116.27.047.37.013.071-.196.17-.418 0-.615-.06-.048-.285-.14-.416.01z"
         fill="#6c5d53"
         id="path58" />
      <path
         d="M19.346 16.447c-.115.154-.04.41.047.593.145.116.27.046.37.013.07-.196.17-.419 0-.615-.13.115-.26.117-.417.009z"
         fill="#917c6f"
         id="path60" />
      <path
         d="M19.679 16.375a.214.082 0 0 1 .058.114.214.082 0 0 1-.297.022.214.082 0 0 1-.058-.114.214.082 0 0 1 .297-.022"
         opacity=".987"
         fill="#6c5d53"
         fill-rule="evenodd"
         id="path62" />
      <path
         d="M18.97 15.972a1.235.602 0 0 1 .337.835 1.235.602 0 0 1-1.713.165 1.235.602 0 0 1-.338-.835 1.235.602 0 0 1 1.712-.165"
         opacity=".987"
         fill="#6c5d53"
         fill-rule="evenodd"
         id="path64" />
      <path
         d="M18.962 15.89a1.235.602 0 0 1 .338.835 1.235.602 0 0 1-1.713.165 1.235.602 0 0 1-.338-.835 1.235.602 0 0 1 1.712-.165"
         opacity=".987"
         fill="#917c6f"
         fill-rule="evenodd"
         id="path66" />
      <path
         d="M19.116 17.536c-.137.195-.047.518.055.748.172.146.322.059.44.017.084-.248.202-.528 0-.776-.072-.061-.339-.178-.495.011z"
         fill="#6c5d53"
         id="path68" />
      <path
         d="M19.098 17.537c-.137.195-.048.518.055.748.172.146.321.059.44.016.084-.247.202-.528 0-.775-.156.144-.309.147-.495.01z"
         fill="#917c6f"
         id="path70" />
      <path
         d="M19.493 17.446a.254.104 0 0 1 .07.144.254.104 0 0 1-.353.028.254.104 0 0 1-.07-.144.254.104 0 0 1 .352-.028"
         opacity=".987"
         fill="#6c5d53"
         fill-rule="evenodd"
         id="path72" />
      <path
         d="M17.1 17.655c-.138.195-.048.517.054.748.172.146.322.058.44.016.084-.247.202-.528 0-.775-.072-.062-.339-.179-.495.01z"
         fill="#6c5d53"
         id="path74" />
      <path
         d="M17.081 17.655c-.137.195-.048.518.055.748.172.146.322.059.44.017.084-.248.202-.528 0-.776-.156.145-.309.147-.495.011z"
         fill="#917c6f"
         id="path76" />
      <path
         d="M17.476 17.564a.254.104 0 0 1 .07.144.254.104 0 0 1-.353.029.254.104 0 0 1-.07-.144.254.104 0 0 1 .353-.029"
         opacity=".987"
         fill="#6c5d53"
         fill-rule="evenodd"
         id="path78" />
    </g>
    <g
       id="g1270"
       transform="matrix(.87292 0 0 .62597 2.277 8.773)">
      <path
         d="M10.373 20.452c.435-.485.793-1.044 1.654-1.372 1.01-.145 1.199.594 1.402.965.438 1.117.531 2.262.571 3.4.756.07.618-.198.45-.502-.374-1.228-.225-2.502-.926-3.7-.17-.534-1.358-.593-1.93-.196-.69.385-.832.937-1.221 1.405z"
         fill="green"
         id="path80"
         stroke-width="1.127" />
      <path
         d="M17.796 18.691c-.402-.48-.715-1.032-1.528-1.371-1.015-.124-1.116.654-1.318 1.023-.383 1.101-.47 2.224-.505 3.341-.836.085-.45-.303-.394-.587.322-1.201.198-2.44.834-3.615.125-.515 1.256-.601 1.784-.195.646.394.766.937 1.127 1.404z"
         fill="#447821"
         id="path84"
         stroke-width="1.127" />
      <path
         d="M11.093 19.904c.359-.475.618-1.016 1.364-1.372 1-.086.993.71 1.195 1.082.324 1.085.402 2.186.432 3.283.916.075.226-.485.315-.764-.26-1.163-.148-2.358-.743-3.495-.119-.566-1.316-.458-1.68-.051-.472.4-.587.88-.883 1.317z"
         fill="#338000"
         id="path86"
         stroke-width="1.127" />
      <path
         d="M17.92 20.446c-.402-.48-.715-1.033-1.528-1.372-1.015-.124-1.116.654-1.317 1.023-.384 1.101-.471 2.225-.506 3.341-.836.085-.45-.302-.394-.586.322-1.202.198-2.44.834-3.615.125-.516 1.256-.602 1.784-.196.646.395.766.938 1.128 1.405z"
         fill="green"
         id="path88"
         stroke-width="1.127" />
      <g
         id="g1261"
         fill="green">
        <path
           d="M10.88 19.113c.376-.49.654-1.048 1.434-1.407.923-.12 1.014.6 1.204.942.42 1.17.485 2.365.576 3.552.832.084.407-.327.378-.605-.31-1.24-.19-2.514-.8-3.73-.095-.517-1.205-.628-1.71-.202-.627.414-.734.968-1.082 1.45z"
           id="path82"
           stroke-width="1.086" />
        <path
           d="M17.92 19.324c-.402-.48-.715-1.033-1.528-1.372-1.015-.124-1.116.654-1.317 1.023-.384 1.101-.471 2.224-.506 3.341-.836.085-.45-.303-.394-.587.322-1.2.198-2.44.834-3.615.125-.515 1.256-.601 1.784-.195.646.394.766.938 1.128 1.405zm-3.699-2.536c-.428.39-.24.872-.252 1.304.06.692.19 1.383.252 2.076.177-1.044.407-2.098.205-3.144-.04-.08-.045-.19-.205-.236z"
           id="path90"
           stroke-width="1.127" />
      </g>
    </g>
    <g
       id="g104"
       transform="matrix(1.01722 0 0 .73095 -.24 6.02)">
      <path
         d="M18.605 21.433c.389-.407.708-.876 1.476-1.152.938-.117 1.086.537 1.272.86.37.922.455 1.867.489 2.805.756.07.464-.237.38-.493-.31-1.008-.193-2.053-.805-3.035-.152-.448-1.212-.497-1.723-.164-.615.323-.741.787-1.089 1.18z"
         fill="green"
         id="path92" />
      <path
         d="M18.916 20.222c.349-.424.607-.908 1.333-1.22.933-.086.97.594 1.161.92.35.983.416 1.984.496 2.98.833.072.309-.356.333-.604-.268-1.05-.17-2.129-.726-3.158-.088-.449-1.121-.545-1.591-.175-.583.36-.683.84-1.006 1.257z"
         fill="green"
         id="path94" />
      <path
         d="M25.228 19.955c-.359-.402-.638-.867-1.363-1.151-.906-.105-.996.549-1.176.858-.342.925-.42 1.868-.45 2.806-.806.073-.332-.322-.334-.566.268-.985.17-2 .726-2.962.11-.476 1.212-.481 1.654-.128.52.331.635.764.943 1.143z"
         fill="#447821"
         id="path96" />
      <path
         d="M19.248 20.973c.32-.398.551-.853 1.217-1.151.893-.073.886.596 1.066.908.29.911.359 1.835.385 2.756.822.065.2-.408.282-.64-.233-.977-.133-1.98-.663-2.936-.134-.53-1.338-.343-1.596.038-.335.322-.451.686-.691 1.025z"
         fill="#338000"
         id="path98" />
      <path
         d="M25.34 21.428c-.36-.403-.639-.867-1.365-1.152-.905-.104-.995.55-1.175.86-.342.924-.42 1.867-.451 2.805-.806.073-.331-.322-.333-.566.268-.985.17-2 .725-2.962.111-.476 1.213-.481 1.655-.128.52.331.634.764.943 1.143z"
         fill="green"
         id="path100" />
      <path
         d="M25.34 20.486c-.36-.403-.639-.867-1.365-1.152-.905-.104-.995.55-1.175.86-.342.924-.42 1.867-.451 2.805-.806.073-.331-.322-.333-.566.268-.985.17-2 .725-2.962.111-.477 1.213-.482 1.655-.129.52.332.634.764.943 1.144zm-3.301-2.129c-.397.362-.212.801-.216 1.198.058.547.163 1.093.216 1.64.158-.876.36-1.761.182-2.64-.036-.068-.04-.16-.182-.198z"
         fill="green"
         id="path102" />
    </g>
    <g
       id="g118"
       transform="matrix(.95224 0 0 .91245 .464 2.35)">
      <path
         d="M11.318 24.388c.47-.327.851-1.064 2.06-.917.77.31.718.804.938 1.208.192.593.254 1.191.278 1.788 1.04-.002.08-.597.252-.852-.175-.74-.173-1.503-.8-2.212-.692-.401-1.976.007-2.17.366-.212.203-.345.417-.558.62z"
         fill="green"
         id="path106" />
      <path
         d="M11.632 23.386c.44-.33.634-1.045 1.807-.983.783.31.668.822.9 1.23.2.653.256 1.312.32 1.97.95.013.15-.516.267-.748-.205-.852-.14-1.727-.806-2.548-.709-.391-1.846.086-1.975.422-.196.216-.316.441-.513.657z"
         fill="green"
         id="path108" />
      <path
         d="M18.022 23.165c-.443-.318-.708-1.022-1.87-.918-.799.316-.687.83-.91 1.245-.169.581-.226 1.167-.247 1.752-.982.021-.083-.556-.248-.78.196-.778.12-1.588.821-2.329.818-.352 1.876.148 2.011.491.156.179.275.362.443.54z"
         fill="#447821"
         id="path110" />
      <path
         d="M11.968 24.008c.404-.303.583-1.022 1.688-.91.714.332.584.827.794 1.237.15.582.201 1.167.22 1.752.918-.003.036-.535.228-.754-.18-.782-.12-1.587-.713-2.343-.85-.378-1.829.219-1.883.562-.11.152-.208.306-.334.456z"
         fill="#338000"
         id="path112" />
      <path
         d="M18.134 24.384c-.443-.318-.708-1.022-1.87-.918-.799.315-.687.83-.91 1.245-.169.581-.226 1.167-.247 1.752-.982.021-.083-.556-.248-.78.197-.778.12-1.588.822-2.329.817-.352 1.875.148 2.01.491.156.179.275.362.443.539z"
         fill="green"
         id="path114" />
      <path
         d="M18.134 23.604c-.443-.318-.708-1.022-1.87-.918-.799.316-.687.83-.91 1.245-.169.582-.226 1.167-.247 1.753-.982.02-.083-.557-.248-.78.197-.779.12-1.588.822-2.33.817-.351 1.875.148 2.01.492.156.178.275.361.443.538zm-3.34-1.761c-.492.44-.15.933-.156 1.396.063.25.118.863.17.883.144-.74.416-1.492.098-2.227l-.044-.03z"
         fill="green"
         id="path116" />
    </g>
    <g
       id="g132"
       transform="matrix(.93817 0 0 .75127 1.774 6.679)">
      <path
         d="M18.604 23.848c.474-.396.779-1.156 1.95-1.123.852.3.783.898 1.014 1.348.223.743.284 1.494.312 2.244.96.033.225-.547.296-.81-.218-.937-.173-1.902-.824-2.803-.575-.483-1.87-.09-2.106.318-.266.266-.396.556-.642.826z"
         fill="green"
         id="path120" />
      <path
         d="M18.918 22.659c.436-.4.619-1.192 1.762-1.187.671.244.632.71.825 1.072.305.908.362 1.83.44 2.747.935.011.165-.59.273-.864-.215-1.015-.136-2.065-.811-3.042-.718-.473-1.807.082-1.965.476-.204.262-.316.537-.524.798z"
         fill="green"
         id="path122" />
      <path
         d="M25.308 22.396c-.443-.384-.68-1.153-1.815-1.117-.793.317-.701.897-.923 1.343-.206.743-.262 1.494-.289 2.243-.918.025-.182-.55-.273-.81.218-.954.132-1.945.82-2.857.704-.436 1.772.066 1.955.448.204.245.318.505.525.75z"
         fill="#447821"
         id="path124" />
      <path
         d="M19.255 23.397c.404-.367.563-1.166 1.651-1.102.713.351.593.915.802 1.367.175.731.226 1.468.248 2.203.871-.004.114-.554.244-.81-.194-.956-.123-1.94-.728-2.866-.687-.434-1.69.138-1.782.507-.161.231-.268.47-.436.7z"
         fill="#338000"
         id="path126" />
      <path
         d="M25.42 23.843c-.443-.384-.68-1.153-1.814-1.117-.794.317-.702.897-.924 1.343-.206.743-.262 1.494-.288 2.243-.918.025-.183-.55-.274-.81.218-.954.132-1.945.82-2.857.705-.436 1.772.066 1.955.448.204.246.319.505.526.75z"
         fill="green"
         id="path128" />
      <path
         d="M25.42 22.918c-.443-.384-.68-1.154-1.814-1.118-.794.317-.702.897-.924 1.343-.206.744-.262 1.494-.288 2.243-.918.025-.183-.55-.274-.81.218-.953.132-1.945.82-2.857.705-.435 1.772.066 1.955.448.204.246.319.506.526.75zm-3.34-2.091c-.45.433-.185.933-.192 1.396.06.464.145.927.192 1.391.149-.896.42-1.806.133-2.701l-.049-.05z"
         fill="green"
         id="path130" />
    </g>
    <path
       d="M14.71 23.931c.19.198-.03.986-.212.46-.009-.087-.022-.671.212-.46m.058-2.7c.24.205-.039.988-.265.47-.026-.107-.015-.69.265-.47m7.727.038c.206.2-.033.987-.23.462-.014-.093-.02-.676.23-.462m.1 1.725c.206.2-.033.986-.23.462-.014-.093-.02-.676.23-.463"
       opacity=".99"
       fill="#fc0"
       fill-rule="evenodd"
       id="path162"
       stroke-width=".913" />
    <path
       d="M17.384 20.179c-.391.39-.516.555-.447.556.141.067.5.303.692.352.425.108-.077.007-.033-.03.006-.006.388-.448.483-.28.028-.21-.004.007.059.111-.11.031.398.02.71.05-.058-.1.207-.2-.051-.782-1.278.057-.95.016-1.413.023z"
       fill="#241f1c"
       stroke="#d38d5f"
       stroke-width=".01"
       id="path615" />
    <path
       d="M17.026 20.61c-.203.283-.562.18-.415.834-.011.94.547 2.077.412 2.198.076.693.111.259.193.127-.003-.058.05-1.29-.108-2.35.136-.358.37-.3.705-.655z"
       fill="#c87137"
       stroke="#c87137"
       stroke-width=".009"
       id="path617" />
    <path
       d="M18.186 20.752l.717-.073c-.224.518-.738.44-.722.498.124.703.346 1.484.326 1.96.005.361-.121.837-.198.261.063-.243-.522-1.128-.559-2.293.048-.152.198-.234.372-.32z"
       fill="#c87137"
       stroke="#c87137"
       stroke-width=".008"
       id="path619" />
    <path
       d="M17.382 18.332c.148.512.183.677.283.965-.225.387-.344.832-.268.898l1.402-.01a2.61 2.61 0 0 0-.338-.9c.102-.163.154-.518.248-.972-.11-.105-.206-.191-.69-.22-.459.042-.51.159-.637.239z"
       fill="#c8763f"
       stroke="#c87137"
       stroke-width=".008"
       id="path623" />
    <path
       d="M17.824 17.627l-.02.246-.565.225c.182.079.148.145.144.226.14-.077.455-.25.646-.226.341-.006.47.165.708.205-.02-.155.028-.19.11-.256l-.674-.195-.041-.215c-.082.04-.173.06-.308-.01z"
       stroke-width=".016"
       id="path641"
       fill="#c87137"
       stroke="#c87137" />
    <path
       d="M19.471 19.312c-.04-.213-.346-.57-.476-.943-.131-.376-.39-.415-.367-.195.023.215.333.577.54.913.206.337.342.438.303.227"
       opacity=".932"
       stroke-width=".042"
       id="path627-8"
       fill="#c87137"
       fill-rule="evenodd"
       stroke="#c87137" />
    <path
       d="M16.572 19.322c.04-.213.346-.57.475-.942.132-.377.391-.416.368-.195-.023.214-.333.576-.54.913-.206.336-.342.437-.304.226"
       opacity=".932"
       stroke-width=".042"
       id="path627-8-1"
       fill="#c87137"
       fill-rule="evenodd"
       stroke="#c87137" />
    <g
       id="g667"
       transform="matrix(.1353 0 0 .12724 15.69 8.81)">
      <path
         d="M12.387 74.066c-.214 1.127.107 3.625.647 4.628.66 1.225.827 3.354 1.012 4.23-3.502 11.417-7.491 9.501-8.14 12.853-1.009 5.219-.053 9.866 1.057 13.794-.81 1.263 2.382 2.346 2.872.287.168 2.24 2.35 2.234 2.99.167.146 2.888 2.338 1.869 2.676.343-.261 2.196 2.471 2.757 2.69.335.243 2.289 2.097 1.913 1.812-.034.278 2.757 2.068.693 2.25.201.489 1.379 1.798 1.045 2.196-.234.679 1.437 2.371.097 1.73-1.71.04-4.859-5.868-11.697-5.868-11.697 3.505-.994 7.813-2.479.644-14.934.273-.934.418-2.317 1.063-3.631.474-1.335.188-3.437.108-4.587-1.152-.824-8.034-.577-9.739-.011z"
         fill="#1a1a1a"
         id="path647" />
      <path
         d="M15.362 70.542c1.215 1.732 2.802 1.668 3.393-.047.754.362 4.869.991 4.951 1.351.061.957-1.594 2.902-1.875 1.826-.051 1.068-1.86 1.717-2.298.351-.193 1.082-1.29 1.337-1.618.342-.187 1.022-1.865 1.157-2.138-.07-.24 1.135-2.07.895-2.2-.243-.928 1.567-2.695-1.035-2.15-1.986"
         opacity=".997"
         fill="#fff"
         id="path663" />
    </g>
    <path
       d="M17.972 19.121c.07-.01-.192-.163-.08-.107.138.069.65.265.446.28a.822.822 0 0 1-.386-.098c-.105-.07-.069-.073-.255-.213"
       opacity=".932"
       stroke-width=".043"
       id="path631"
       fill="#c87137"
       fill-rule="evenodd"
       stroke="#c87137" />
    <g
       id="girl-head"
       transform="translate(-11.047 .16)">
      <g
         id="g637"
         transform="matrix(.1353 0 0 .12724 26.736 8.746)">
        <path
           d="M15.558 68.585a2.947 4.101 0 0 1-1.277-5.518 2.947 4.101 0 0 1 3.963-1.784 2.947 4.101 0 0 1 1.287 5.513 2.947 4.101 0 0 1-3.96 1.798"
           fill="#c87137"
           fill-rule="evenodd"
           id="path635" />
      </g>
      <path
         d="M29.138 16.7c-.045.194-.312.343-.505.415-.075-.297-.026-.635.345-.688.51.006.509.423.46.617a.508.508 0 0 1-.3-.344z"
         stroke="#000"
         stroke-width=".011"
         id="path669" />
      <path
         d="M29.424 17.033c-.017.095-.039.224.023.313-.007-.103-.035-.202-.005-.311zm-.777.076c.017.096.039.225-.024.314.007-.103.036-.202.006-.311z"
         stroke="#000"
         stroke-width=".009"
         id="path671" />
      <path
         d="M29.032 16.508a.198.178 73.113 0 1-.17-.214.198.178 73.113 0 1 .184-.176.198.178 73.113 0 1 .174.211.198.178 73.113 0 1-.182.18l.003-.196z"
         fill-rule="evenodd"
         stroke="#000"
         stroke-width=".032"
         id="path673" />
      <path
         d="M28.853 16.336c-.017-.048-.04-.114-.01-.164.004.054-.005.107.021.162zm.216-.216c.05.003.117.009.148.058-.049-.02-.091-.05-.15-.047z"
         stroke="#000"
         stroke-width=".005"
         id="path675" />
    </g>
    <path
       d="M18.25 19.12c.167-.012.46.083.888.143.365.051.43.134.283.188-.22.079-.79-.128-.888-.143-.321-.048-.452-.175-.285-.187"
       stroke-width=".033"
       id="right-arm"
       fill="#c87137"
       fill-rule="evenodd"
       stroke="#c87137" />
    <g
       id="g2604-7-3"
       transform="matrix(.03016 .00333 -.0036 .0343 16.803 15.72)">
      <path
         d="M34.073 225.637c-.474 9.529-2.244 22.477 3.308 24.313 4.899-.652 5.858-7.063 4.033-23.847-.665 5.799-6.597 5.556-7.341-.466z"
         id="path3804-8-9-3-0-25-0"
         fill="#787b93"
         stroke="#000"
         stroke-width=".967" />
      <path
         d="M35.34 238.084c.83.765 5.306 3.158 6.407 3.691l-.304.95c-1.1-.619-5.434-2.974-6.171-3.693z"
         id="path4408-9-0-7-83-3-34"
         fill="#241f1c"
         stroke-width=".041" />
      <path
         d="M41.726 236.663c-1.162 1.01-4.43 5.94-5.138 7.136h-1.702c.856-1.22 4.087-6.005 5.187-6.914z"
         id="path4408-9-0-7-4-9-3-1"
         fill="#241f1c"
         stroke-width=".053" />
      <path
         d="M36.481 238.799c-1.514-1.095 2.88-8.409 3.975-7.652 7.443 4.82-13.105 4.24-6.78-.289 3.266 1.308 4.139 5.63 7.88 7.085"
         id="path7833-8-2-7"
         fill="none"
         stroke="#000"
         stroke-width=".948" />
      <path
         id="path2104-5-4-9-4"
         transform="matrix(-.38805 -.92164 .71565 -.69846 0 0)"
         d="M-219.244-59.606a6.102 5.073 0 0 1-3.313-4.424 6.102 5.073 0 0 1 3.127-4.517 6.102 5.073 0 0 1 6.267.158l-3.293 4.271z"
         opacity=".932"
         fill="gray"
         fill-rule="evenodd"
         stroke="#000"
         stroke-width="1.038" />
    </g>
    <g
       id="g2597-2-8"
       transform="matrix(.03443 .0033 -.00322 .0337 15.357 15.35)">
      <g
         id="g2589-5-2"
         transform="translate(26.759 4.429)">
        <path
           d="M79.91 223.942s.004 14.849-.022 15.347c-.557 10.562 6.724 10.368 7 6.063 1.923-2.936.41-1.42.564-7.454l-1.54-13.698c-.363 2.647-4.123 5.698-6.002-.258z"
           id="path3804-8-9-3-1-3-3-5"
           fill="#787b93"
           stroke="#000"
           stroke-width=".915" />
        <path
           d="M80.67 235.12c.83.765 5.305 3.158 6.406 3.691l-.304.95c-1.1-.619-5.434-2.974-6.171-3.693z"
           id="path4408-9-0-7-8-0-5-6"
           fill="#241f1c"
           stroke-width=".041" />
        <path
           d="M86.754 233.7c-1.054 1.123-3.807 6.357-4.39 7.618l-1.693.173c.727-1.3 3.458-6.388 4.46-7.404z"
           id="path4408-9-0-7-4-7-5-2-5"
           fill="#241f1c"
           stroke-width=".053" />
        <path
           id="path2104-5-7-01-6"
           transform="matrix(-.38983 -.92089 .71753 -.69653 0 0)"
           d="M-252.022-14.252a5.838 4.863 0 0 1-3.17-4.242 5.838 4.863 0 0 1 2.992-4.33 5.838 4.863 0 0 1 5.995.152l-3.15 4.094z"
           opacity=".932"
           fill="gray"
           fill-rule="evenodd"
           stroke="#000"
           stroke-width=".994" />
      </g>
      <path
         d="M108.569 239.71c-1.514-1.094 2.88-8.408 3.975-7.651 7.443 4.82-13.105 4.239-6.78-.29 3.266 1.308 4.138 5.63 7.88 7.086"
         id="path7833-0-8-4-3"
         fill="none"
         stroke="#000"
         stroke-width=".948" />
    </g>
    <g
       id="book"
       transform="matrix(.24082 0 0 .17114 21.385 19.255)"
       stroke="#2a7fff"
       fill-rule="evenodd"
       stroke-width=".406">
      <path
         id="rect1432"
         d="M-18.148-4.019l3.158.972.09 4.326-3.293-1.04z"
         fill="#60f" />
      <path
         id="rect1432-2"
         d="M-14.71-3.07l2.932-.949.18 4.303-3 .972z"
         fill="#60f" />
      <path
         id="path1451"
         d="M-12.344-1.605L-13.049-2l.028.808-.219-.778-.55.59.394-.704-.808.028.778-.22-.591-.55.705.395-.028-.808.219.778.55-.591-.394.705.808-.028-.778.219z"
         transform="matrix(.58037 0 0 .59142 -5.079 -.464)"
         fill="#5f8dd3" />
      <path
         id="path1451-8"
         d="M-12.344-1.605L-13.049-2l.028.808-.219-.778-.55.59.394-.704-.808.028.778-.22-.591-.55.705.395-.028-.808.219.778.55-.591-.394.705.808-.028-.778.219z"
         transform="matrix(.39272 0 0 .35978 -11.735 -.65)"
         fill="#5f8dd3" />
    </g>
    <path
       d="M17.73 19.55c-.155.028-.438-.037-.844-.056-.346-.016-.415-.09-.282-.156.198-.097.751.051.845.056.304.018.438.129.283.156"
       stroke-width=".032"
       id="left-arm"
       fill="#c87137"
       fill-rule="evenodd"
       stroke="#c87137" />
    <path
       d="M18.136 19.446c-.066-.028.228-.107.106-.083-.152.03-.698.086-.505.153a.823.823 0 0 0 .398.007c.12-.04.086-.052.303-.138"
       stroke-width=".043"
       id="left-hand"
       fill="#c87137"
       fill-rule="evenodd"
       stroke="#c87137" />
  </g>
  <g
     id="sign9"
     transform="matrix(1.06677 0 0 .9797 -22.759 5.205)">
    <path
       id="rect988"
       opacity=".987"
       fill="#1a1a1a"
       fill-rule="evenodd"
       stroke="#542403"
       stroke-width=".682"
       d="M21.73-4.969h3.532v7.433H21.73z" />
    <text
       style="line-height:1.25"
       x="26.244"
       y="-1.788"
       id="text998"
       transform="scale(.83702 1.19472)"
       font-size="1.982"
       font-family="sans-serif"
       fill="#b3b3b3"
       stroke-width=".165"><tspan
         id="tspan996"
         x="26.244"
         y="-1.788">Not</tspan></text>
    <text
       style="line-height:1.25"
       x="35.563"
       y=".689"
       id="text998-0"
       transform="scale(.61885 1.61589)"
       font-size="1.978"
       font-family="sans-serif"
       fill="#b3b3b3"
       stroke-width=".165"><tspan
         id="tspan996-3"
         x="35.563"
         y=".689">Here</tspan></text>
  </g>
</svg>
